<?xml version="1.0" encoding="utf-8" standalone="no"?>
<!DOCTYPE svg PUBLIC "-//W3C//DTD SVG 1.1//EN"
  "http://www.w3.org/Graphics/SVG/1.1/DTD/svg11.dtd">
<svg xmlns:xlink="http://www.w3.org/1999/xlink" width="377.52pt" height="163.077062pt" viewBox="0 0 377.52 163.077062" xmlns="http://www.w3.org/2000/svg" version="1.1">
 <metadata>
  <rdf:RDF xmlns:dc="http://purl.org/dc/elements/1.1/" xmlns:cc="http://creativecommons.org/ns#" xmlns:rdf="http://www.w3.org/1999/02/22-rdf-syntax-ns#">
   <cc:Work>
    <dc:type rdf:resource="http://purl.org/dc/dcmitype/StillImage"/>
    <dc:date>2024-08-03T01:07:59.189430</dc:date>
    <dc:format>image/svg+xml</dc:format>
    <dc:creator>
     <cc:Agent>
      <dc:title>Matplotlib v3.9.0, https://matplotlib.org/</dc:title>
     </cc:Agent>
    </dc:creator>
   </cc:Work>
  </rdf:RDF>
 </metadata>
 <defs>
  <style type="text/css">*{stroke-linejoin: round; stroke-linecap: butt}</style>
 </defs>
 <g id="figure_1">
  <g id="patch_1">
   <path d="M -0 163.077062 
L 377.52 163.077062 
L 377.52 -0 
L -0 -0 
z
" style="fill: #ffffff"/>
  </g>
  <g id="axes_1">
   <g id="patch_2">
    <path d="M 171.81 134.874562 
L 205.71 134.874562 
L 205.71 41.235812 
L 171.81 41.235812 
z
" style="fill: #ffffff"/>
   </g>
   <g id="matplotlib.axis_1">
    <g id="xtick_1">
     <g id="line2d_1">
      <path d="M 173.505 134.874562 
L 173.505 41.235812 
" clip-path="url(#pe5aebfc2ce)" style="fill: none; stroke-dasharray: 1.85,0.8; stroke-dashoffset: 0; stroke: #000000; stroke-opacity: 0.5; stroke-width: 0.5"/>
     </g>
     <g id="line2d_2">
      <defs>
       <path id="mc80dc6a664" d="M 0 0 
L 0 -3 
" style="stroke: #000000; stroke-width: 0.5"/>
      </defs>
      <g>
       <use xlink:href="#mc80dc6a664" x="173.505" y="134.874562" style="stroke: #000000; stroke-width: 0.5"/>
      </g>
     </g>
     <g id="line2d_3">
      <defs>
       <path id="mbb20616b32" d="M 0 0 
L 0 3 
" style="stroke: #000000; stroke-width: 0.5"/>
      </defs>
      <g>
       <use xlink:href="#mbb20616b32" x="173.505" y="41.235812" style="stroke: #000000; stroke-width: 0.5"/>
      </g>
     </g>
     <g id="text_1">
      <!-- H0 -->
      <g transform="translate(175.505 148.374562) rotate(-90) scale(0.08 -0.08)">
       <defs>
        <path id="Cmr10-48" d="M 197 0 
L 197 225 
Q 856 225 856 428 
L 856 3944 
Q 856 4147 197 4147 
L 197 4372 
L 2113 4372 
L 2113 4147 
Q 1453 4147 1453 3944 
L 1453 2388 
L 3341 2388 
L 3341 3944 
Q 3341 4147 2681 4147 
L 2681 4372 
L 4594 4372 
L 4594 4147 
Q 3938 4147 3938 3944 
L 3938 428 
Q 3938 225 4594 225 
L 4594 0 
L 2681 0 
L 2681 225 
Q 3341 225 3341 428 
L 3341 2163 
L 1453 2163 
L 1453 428 
Q 1453 225 2113 225 
L 2113 0 
L 197 0 
z
" transform="scale(0.015625)"/>
        <path id="Cmr10-30" d="M 1600 -141 
Q 816 -141 533 504 
Q 250 1150 250 2041 
Q 250 2597 351 3087 
Q 453 3578 754 3920 
Q 1056 4263 1600 4263 
Q 2022 4263 2290 4056 
Q 2559 3850 2700 3523 
Q 2841 3197 2892 2823 
Q 2944 2450 2944 2041 
Q 2944 1491 2842 1011 
Q 2741 531 2444 195 
Q 2147 -141 1600 -141 
z
M 1600 25 
Q 1956 25 2131 390 
Q 2306 756 2347 1200 
Q 2388 1644 2388 2144 
Q 2388 2625 2347 3031 
Q 2306 3438 2132 3767 
Q 1959 4097 1600 4097 
Q 1238 4097 1063 3765 
Q 888 3434 847 3029 
Q 806 2625 806 2144 
Q 806 1788 823 1472 
Q 841 1156 916 820 
Q 991 484 1158 254 
Q 1325 25 1600 25 
z
" transform="scale(0.015625)"/>
       </defs>
       <use xlink:href="#Cmr10-48"/>
       <use xlink:href="#Cmr10-30" x="75"/>
      </g>
     </g>
    </g>
    <g id="xtick_2">
     <g id="line2d_4">
      <path d="M 176.895 134.874562 
L 176.895 41.235812 
" clip-path="url(#pe5aebfc2ce)" style="fill: none; stroke-dasharray: 1.85,0.8; stroke-dashoffset: 0; stroke: #000000; stroke-opacity: 0.5; stroke-width: 0.5"/>
     </g>
     <g id="line2d_5">
      <g>
       <use xlink:href="#mc80dc6a664" x="176.895" y="134.874562" style="stroke: #000000; stroke-width: 0.5"/>
      </g>
     </g>
     <g id="line2d_6">
      <g>
       <use xlink:href="#mbb20616b32" x="176.895" y="41.235812" style="stroke: #000000; stroke-width: 0.5"/>
      </g>
     </g>
     <g id="text_2">
      <!-- H1 -->
      <g transform="translate(178.895 148.374562) rotate(-90) scale(0.08 -0.08)">
       <defs>
        <path id="Cmr10-31" d="M 594 0 
L 594 225 
Q 1394 225 1394 428 
L 1394 3788 
Q 1063 3628 556 3628 
L 556 3853 
Q 1341 3853 1741 4263 
L 1831 4263 
Q 1853 4263 1873 4245 
Q 1894 4228 1894 4206 
L 1894 428 
Q 1894 225 2694 225 
L 2694 0 
L 594 0 
z
" transform="scale(0.015625)"/>
       </defs>
       <use xlink:href="#Cmr10-48"/>
       <use xlink:href="#Cmr10-31" x="75"/>
      </g>
     </g>
    </g>
    <g id="xtick_3">
     <g id="line2d_7">
      <path d="M 180.285 134.874562 
L 180.285 41.235812 
" clip-path="url(#pe5aebfc2ce)" style="fill: none; stroke-dasharray: 1.85,0.8; stroke-dashoffset: 0; stroke: #000000; stroke-opacity: 0.5; stroke-width: 0.5"/>
     </g>
     <g id="line2d_8">
      <g>
       <use xlink:href="#mc80dc6a664" x="180.285" y="134.874562" style="stroke: #000000; stroke-width: 0.5"/>
      </g>
     </g>
     <g id="line2d_9">
      <g>
       <use xlink:href="#mbb20616b32" x="180.285" y="41.235812" style="stroke: #000000; stroke-width: 0.5"/>
      </g>
     </g>
     <g id="text_3">
      <!-- H2 -->
      <g transform="translate(182.285 148.374562) rotate(-90) scale(0.08 -0.08)">
       <defs>
        <path id="Cmr10-32" d="M 319 0 
L 319 172 
Q 319 188 331 206 
L 1325 1306 
Q 1550 1550 1690 1715 
Q 1831 1881 1968 2097 
Q 2106 2313 2186 2536 
Q 2266 2759 2266 3009 
Q 2266 3272 2169 3511 
Q 2072 3750 1880 3894 
Q 1688 4038 1416 4038 
Q 1138 4038 916 3870 
Q 694 3703 603 3438 
Q 628 3444 672 3444 
Q 816 3444 917 3347 
Q 1019 3250 1019 3097 
Q 1019 2950 917 2848 
Q 816 2747 672 2747 
Q 522 2747 420 2851 
Q 319 2956 319 3097 
Q 319 3338 409 3548 
Q 500 3759 670 3923 
Q 841 4088 1055 4175 
Q 1269 4263 1509 4263 
Q 1875 4263 2190 4108 
Q 2506 3953 2690 3670 
Q 2875 3388 2875 3009 
Q 2875 2731 2753 2481 
Q 2631 2231 2440 2026 
Q 2250 1822 1953 1562 
Q 1656 1303 1563 1216 
L 838 519 
L 1453 519 
Q 1906 519 2211 526 
Q 2516 534 2534 550 
Q 2609 631 2688 1141 
L 2875 1141 
L 2694 0 
L 319 0 
z
" transform="scale(0.015625)"/>
       </defs>
       <use xlink:href="#Cmr10-48"/>
       <use xlink:href="#Cmr10-32" x="75"/>
      </g>
     </g>
    </g>
    <g id="xtick_4">
     <g id="line2d_10">
      <path d="M 183.675 134.874562 
L 183.675 41.235812 
" clip-path="url(#pe5aebfc2ce)" style="fill: none; stroke-dasharray: 1.85,0.8; stroke-dashoffset: 0; stroke: #000000; stroke-opacity: 0.5; stroke-width: 0.5"/>
     </g>
     <g id="line2d_11">
      <g>
       <use xlink:href="#mc80dc6a664" x="183.675" y="134.874562" style="stroke: #000000; stroke-width: 0.5"/>
      </g>
     </g>
     <g id="line2d_12">
      <g>
       <use xlink:href="#mbb20616b32" x="183.675" y="41.235812" style="stroke: #000000; stroke-width: 0.5"/>
      </g>
     </g>
     <g id="text_4">
      <!-- H3 -->
      <g transform="translate(185.675 148.374562) rotate(-90) scale(0.08 -0.08)">
       <defs>
        <path id="Cmr10-33" d="M 609 494 
Q 759 275 1012 169 
Q 1266 63 1556 63 
Q 1928 63 2084 380 
Q 2241 697 2241 1100 
Q 2241 1281 2208 1462 
Q 2175 1644 2097 1800 
Q 2019 1956 1883 2050 
Q 1747 2144 1550 2144 
L 1125 2144 
Q 1069 2144 1069 2203 
L 1069 2259 
Q 1069 2309 1125 2309 
L 1478 2338 
Q 1703 2338 1851 2506 
Q 2000 2675 2069 2917 
Q 2138 3159 2138 3378 
Q 2138 3684 1994 3881 
Q 1850 4078 1556 4078 
Q 1313 4078 1091 3986 
Q 869 3894 738 3706 
Q 750 3709 759 3711 
Q 769 3713 781 3713 
Q 925 3713 1022 3613 
Q 1119 3513 1119 3372 
Q 1119 3234 1022 3134 
Q 925 3034 781 3034 
Q 641 3034 541 3134 
Q 441 3234 441 3372 
Q 441 3647 606 3850 
Q 772 4053 1033 4158 
Q 1294 4263 1556 4263 
Q 1750 4263 1965 4205 
Q 2181 4147 2356 4039 
Q 2531 3931 2642 3762 
Q 2753 3594 2753 3378 
Q 2753 3109 2633 2881 
Q 2513 2653 2303 2487 
Q 2094 2322 1844 2241 
Q 2122 2188 2372 2031 
Q 2622 1875 2773 1631 
Q 2925 1388 2925 1106 
Q 2925 753 2731 467 
Q 2538 181 2222 20 
Q 1906 -141 1556 -141 
Q 1256 -141 954 -26 
Q 653 88 461 316 
Q 269 544 269 863 
Q 269 1022 375 1128 
Q 481 1234 641 1234 
Q 744 1234 830 1186 
Q 916 1138 964 1050 
Q 1013 963 1013 863 
Q 1013 706 903 600 
Q 794 494 641 494 
L 609 494 
z
" transform="scale(0.015625)"/>
       </defs>
       <use xlink:href="#Cmr10-48"/>
       <use xlink:href="#Cmr10-33" x="75"/>
      </g>
     </g>
    </g>
    <g id="xtick_5">
     <g id="line2d_13">
      <path d="M 187.065 134.874562 
L 187.065 41.235812 
" clip-path="url(#pe5aebfc2ce)" style="fill: none; stroke-dasharray: 1.85,0.8; stroke-dashoffset: 0; stroke: #000000; stroke-opacity: 0.5; stroke-width: 0.5"/>
     </g>
     <g id="line2d_14">
      <g>
       <use xlink:href="#mc80dc6a664" x="187.065" y="134.874562" style="stroke: #000000; stroke-width: 0.5"/>
      </g>
     </g>
     <g id="line2d_15">
      <g>
       <use xlink:href="#mbb20616b32" x="187.065" y="41.235812" style="stroke: #000000; stroke-width: 0.5"/>
      </g>
     </g>
     <g id="text_5">
      <!-- H4 -->
      <g transform="translate(189.065 148.374562) rotate(-90) scale(0.08 -0.08)">
       <defs>
        <path id="Cmr10-34" d="M 178 1056 
L 178 1281 
L 2156 4231 
Q 2178 4263 2222 4263 
L 2316 4263 
Q 2388 4263 2388 4191 
L 2388 1281 
L 3016 1281 
L 3016 1056 
L 2388 1056 
L 2388 428 
Q 2388 297 2575 261 
Q 2763 225 3009 225 
L 3009 0 
L 1247 0 
L 1247 225 
Q 1494 225 1681 261 
Q 1869 297 1869 428 
L 1869 1056 
L 178 1056 
z
M 391 1281 
L 1906 1281 
L 1906 3547 
L 391 1281 
z
" transform="scale(0.015625)"/>
       </defs>
       <use xlink:href="#Cmr10-48"/>
       <use xlink:href="#Cmr10-34" x="75"/>
      </g>
     </g>
    </g>
    <g id="xtick_6">
     <g id="line2d_16">
      <path d="M 190.455 134.874562 
L 190.455 41.235812 
" clip-path="url(#pe5aebfc2ce)" style="fill: none; stroke-dasharray: 1.85,0.8; stroke-dashoffset: 0; stroke: #000000; stroke-opacity: 0.5; stroke-width: 0.5"/>
     </g>
     <g id="line2d_17">
      <g>
       <use xlink:href="#mc80dc6a664" x="190.455" y="134.874562" style="stroke: #000000; stroke-width: 0.5"/>
      </g>
     </g>
     <g id="line2d_18">
      <g>
       <use xlink:href="#mbb20616b32" x="190.455" y="41.235812" style="stroke: #000000; stroke-width: 0.5"/>
      </g>
     </g>
     <g id="text_6">
      <!-- H5 -->
      <g transform="translate(192.455 148.374562) rotate(-90) scale(0.08 -0.08)">
       <defs>
        <path id="Cmr10-35" d="M 556 728 
Q 622 541 758 387 
Q 894 234 1080 148 
Q 1266 63 1466 63 
Q 1928 63 2103 422 
Q 2278 781 2278 1294 
Q 2278 1516 2270 1667 
Q 2263 1819 2228 1959 
Q 2169 2184 2020 2353 
Q 1872 2522 1656 2522 
Q 1441 2522 1286 2456 
Q 1131 2391 1034 2303 
Q 938 2216 863 2119 
Q 788 2022 769 2016 
L 697 2016 
Q 681 2016 657 2036 
Q 634 2056 634 2075 
L 634 4213 
Q 634 4228 654 4245 
Q 675 4263 697 4263 
L 716 4263 
Q 1147 4056 1631 4056 
Q 2106 4056 2547 4263 
L 2566 4263 
Q 2588 4263 2606 4247 
Q 2625 4231 2625 4213 
L 2625 4153 
Q 2625 4122 2613 4122 
Q 2394 3831 2064 3668 
Q 1734 3506 1381 3506 
Q 1125 3506 856 3578 
L 856 2369 
Q 1069 2541 1236 2614 
Q 1403 2688 1663 2688 
Q 2016 2688 2295 2484 
Q 2575 2281 2725 1954 
Q 2875 1628 2875 1288 
Q 2875 903 2686 575 
Q 2497 247 2172 53 
Q 1847 -141 1466 -141 
Q 1150 -141 886 21 
Q 622 184 470 459 
Q 319 734 319 1044 
Q 319 1188 412 1278 
Q 506 1369 647 1369 
Q 788 1369 883 1276 
Q 978 1184 978 1044 
Q 978 906 883 811 
Q 788 716 647 716 
Q 625 716 597 720 
Q 569 725 556 728 
z
" transform="scale(0.015625)"/>
       </defs>
       <use xlink:href="#Cmr10-48"/>
       <use xlink:href="#Cmr10-35" x="75"/>
      </g>
     </g>
    </g>
    <g id="xtick_7">
     <g id="line2d_19">
      <path d="M 193.845 134.874562 
L 193.845 41.235812 
" clip-path="url(#pe5aebfc2ce)" style="fill: none; stroke-dasharray: 1.85,0.8; stroke-dashoffset: 0; stroke: #000000; stroke-opacity: 0.5; stroke-width: 0.5"/>
     </g>
     <g id="line2d_20">
      <g>
       <use xlink:href="#mc80dc6a664" x="193.845" y="134.874562" style="stroke: #000000; stroke-width: 0.5"/>
      </g>
     </g>
     <g id="line2d_21">
      <g>
       <use xlink:href="#mbb20616b32" x="193.845" y="41.235812" style="stroke: #000000; stroke-width: 0.5"/>
      </g>
     </g>
     <g id="text_7">
      <!-- H6 -->
      <g transform="translate(195.845 148.374562) rotate(-90) scale(0.08 -0.08)">
       <defs>
        <path id="Cmr10-36" d="M 1600 -141 
Q 1203 -141 937 70 
Q 672 281 526 617 
Q 381 953 325 1322 
Q 269 1691 269 2069 
Q 269 2575 466 3084 
Q 663 3594 1045 3928 
Q 1428 4263 1953 4263 
Q 2172 4263 2361 4180 
Q 2550 4097 2658 3936 
Q 2766 3775 2766 3547 
Q 2766 3416 2677 3327 
Q 2588 3238 2456 3238 
Q 2331 3238 2240 3328 
Q 2150 3419 2150 3547 
Q 2150 3672 2240 3762 
Q 2331 3853 2456 3853 
L 2491 3853 
Q 2409 3969 2261 4023 
Q 2113 4078 1953 4078 
Q 1759 4078 1595 3993 
Q 1431 3909 1300 3765 
Q 1169 3622 1081 3448 
Q 994 3275 945 3053 
Q 897 2831 884 2637 
Q 872 2444 872 2150 
Q 984 2413 1190 2580 
Q 1397 2747 1656 2747 
Q 1941 2747 2175 2631 
Q 2409 2516 2578 2311 
Q 2747 2106 2836 1843 
Q 2925 1581 2925 1313 
Q 2925 938 2758 598 
Q 2591 259 2287 59 
Q 1984 -141 1600 -141 
z
M 1600 63 
Q 1847 63 1997 175 
Q 2147 288 2217 473 
Q 2288 659 2305 848 
Q 2322 1038 2322 1313 
Q 2322 1675 2287 1931 
Q 2253 2188 2100 2383 
Q 1947 2578 1631 2578 
Q 1372 2578 1205 2403 
Q 1038 2228 961 1961 
Q 884 1694 884 1447 
Q 884 1363 891 1319 
Q 891 1309 889 1303 
Q 888 1297 884 1288 
Q 884 1013 940 731 
Q 997 450 1156 256 
Q 1316 63 1600 63 
z
" transform="scale(0.015625)"/>
       </defs>
       <use xlink:href="#Cmr10-48"/>
       <use xlink:href="#Cmr10-36" x="75"/>
      </g>
     </g>
    </g>
    <g id="xtick_8">
     <g id="line2d_22">
      <path d="M 197.235 134.874562 
L 197.235 41.235812 
" clip-path="url(#pe5aebfc2ce)" style="fill: none; stroke-dasharray: 1.85,0.8; stroke-dashoffset: 0; stroke: #000000; stroke-opacity: 0.5; stroke-width: 0.5"/>
     </g>
     <g id="line2d_23">
      <g>
       <use xlink:href="#mc80dc6a664" x="197.235" y="134.874562" style="stroke: #000000; stroke-width: 0.5"/>
      </g>
     </g>
     <g id="line2d_24">
      <g>
       <use xlink:href="#mbb20616b32" x="197.235" y="41.235812" style="stroke: #000000; stroke-width: 0.5"/>
      </g>
     </g>
     <g id="text_8">
      <!-- H7 -->
      <g transform="translate(199.235 148.374562) rotate(-90) scale(0.08 -0.08)">
       <defs>
        <path id="Cmr10-37" d="M 1113 166 
Q 1113 522 1175 862 
Q 1238 1203 1358 1536 
Q 1478 1869 1648 2189 
Q 1819 2509 2022 2791 
L 2606 3603 
L 1875 3603 
Q 738 3603 703 3572 
Q 619 3469 544 2981 
L 359 2981 
L 569 4325 
L 756 4325 
L 756 4306 
Q 756 4191 1147 4156 
Q 1538 4122 1913 4122 
L 3103 4122 
L 3103 3956 
Q 3103 3950 3101 3947 
Q 3100 3944 3097 3938 
L 2216 2700 
Q 1891 2219 1809 1631 
Q 1728 1044 1728 166 
Q 1728 41 1637 -50 
Q 1547 -141 1422 -141 
Q 1294 -141 1203 -50 
Q 1113 41 1113 166 
z
" transform="scale(0.015625)"/>
       </defs>
       <use xlink:href="#Cmr10-48"/>
       <use xlink:href="#Cmr10-37" x="75"/>
      </g>
     </g>
    </g>
    <g id="xtick_9">
     <g id="line2d_25">
      <path d="M 200.625 134.874562 
L 200.625 41.235812 
" clip-path="url(#pe5aebfc2ce)" style="fill: none; stroke-dasharray: 1.85,0.8; stroke-dashoffset: 0; stroke: #000000; stroke-opacity: 0.5; stroke-width: 0.5"/>
     </g>
     <g id="line2d_26">
      <g>
       <use xlink:href="#mc80dc6a664" x="200.625" y="134.874562" style="stroke: #000000; stroke-width: 0.5"/>
      </g>
     </g>
     <g id="line2d_27">
      <g>
       <use xlink:href="#mbb20616b32" x="200.625" y="41.235812" style="stroke: #000000; stroke-width: 0.5"/>
      </g>
     </g>
     <g id="text_9">
      <!-- H8 -->
      <g transform="translate(202.625 148.374562) rotate(-90) scale(0.08 -0.08)">
       <defs>
        <path id="Cmr10-38" d="M 269 972 
Q 269 1356 522 1651 
Q 775 1947 1172 2144 
L 934 2297 
Q 716 2441 578 2680 
Q 441 2919 441 3181 
Q 441 3488 602 3734 
Q 763 3981 1030 4122 
Q 1297 4263 1600 4263 
Q 1884 4263 2148 4147 
Q 2413 4031 2583 3815 
Q 2753 3600 2753 3303 
Q 2753 3088 2651 2903 
Q 2550 2719 2373 2572 
Q 2197 2425 1997 2322 
L 2363 2088 
Q 2616 1922 2770 1653 
Q 2925 1384 2925 1088 
Q 2925 741 2739 456 
Q 2553 172 2247 15 
Q 1941 -141 1600 -141 
Q 1269 -141 961 -6 
Q 653 128 461 383 
Q 269 638 269 972 
z
M 616 972 
Q 616 719 755 509 
Q 894 300 1122 181 
Q 1350 63 1600 63 
Q 1972 63 2275 280 
Q 2578 497 2578 856 
Q 2578 978 2529 1098 
Q 2481 1219 2395 1317 
Q 2309 1416 2203 1478 
L 1344 2034 
Q 1144 1928 976 1765 
Q 809 1603 712 1400 
Q 616 1197 616 972 
z
M 1056 2925 
L 1831 2425 
Q 2100 2581 2272 2803 
Q 2444 3025 2444 3303 
Q 2444 3519 2323 3698 
Q 2203 3878 2009 3978 
Q 1816 4078 1594 4078 
Q 1400 4078 1203 4003 
Q 1006 3928 878 3779 
Q 750 3631 750 3431 
Q 750 3131 1056 2925 
z
" transform="scale(0.015625)"/>
       </defs>
       <use xlink:href="#Cmr10-48"/>
       <use xlink:href="#Cmr10-38" x="75"/>
      </g>
     </g>
    </g>
    <g id="xtick_10">
     <g id="line2d_28">
      <path d="M 204.015 134.874562 
L 204.015 41.235812 
" clip-path="url(#pe5aebfc2ce)" style="fill: none; stroke-dasharray: 1.85,0.8; stroke-dashoffset: 0; stroke: #000000; stroke-opacity: 0.5; stroke-width: 0.5"/>
     </g>
     <g id="line2d_29">
      <g>
       <use xlink:href="#mc80dc6a664" x="204.015" y="134.874562" style="stroke: #000000; stroke-width: 0.5"/>
      </g>
     </g>
     <g id="line2d_30">
      <g>
       <use xlink:href="#mbb20616b32" x="204.015" y="41.235812" style="stroke: #000000; stroke-width: 0.5"/>
      </g>
     </g>
     <g id="text_10">
      <!-- H9 -->
      <g transform="translate(206.015 148.374562) rotate(-90) scale(0.08 -0.08)">
       <defs>
        <path id="Cmr10-39" d="M 722 269 
Q 897 63 1331 63 
Q 1575 63 1786 228 
Q 1997 394 2113 634 
Q 2247 906 2284 1214 
Q 2322 1522 2322 1978 
Q 2213 1719 2008 1553 
Q 1803 1388 1538 1388 
Q 1166 1388 873 1589 
Q 581 1791 425 2120 
Q 269 2450 269 2822 
Q 269 3206 444 3539 
Q 619 3872 928 4067 
Q 1238 4263 1631 4263 
Q 2019 4263 2280 4052 
Q 2541 3841 2678 3508 
Q 2816 3175 2870 2803 
Q 2925 2431 2925 2069 
Q 2925 1575 2744 1061 
Q 2563 547 2202 203 
Q 1841 -141 1331 -141 
Q 953 -141 690 37 
Q 428 216 428 575 
Q 428 706 517 795 
Q 606 884 738 884 
Q 866 884 955 795 
Q 1044 706 1044 575 
Q 1044 450 953 359 
Q 863 269 738 269 
L 722 269 
z
M 1563 1556 
Q 1825 1556 1992 1732 
Q 2159 1909 2234 2171 
Q 2309 2434 2309 2694 
L 2309 2816 
L 2309 2841 
Q 2309 3322 2168 3700 
Q 2028 4078 1631 4078 
Q 1378 4078 1220 3967 
Q 1063 3856 988 3672 
Q 913 3488 892 3278 
Q 872 3069 872 2822 
Q 872 2459 906 2203 
Q 941 1947 1094 1751 
Q 1247 1556 1563 1556 
z
" transform="scale(0.015625)"/>
       </defs>
       <use xlink:href="#Cmr10-48"/>
       <use xlink:href="#Cmr10-39" x="75"/>
      </g>
     </g>
    </g>
    <g id="xtick_11">
     <g id="line2d_31">
      <defs>
       <path id="m86d6a7d52b" d="M 0 0 
L 0 -1.5 
" style="stroke: #000000; stroke-width: 0.5"/>
      </defs>
      <g>
       <use xlink:href="#m86d6a7d52b" x="172.149" y="134.874562" style="stroke: #000000; stroke-width: 0.5"/>
      </g>
     </g>
     <g id="line2d_32">
      <defs>
       <path id="m63df0185e9" d="M 0 0 
L 0 1.5 
" style="stroke: #000000; stroke-width: 0.5"/>
      </defs>
      <g>
       <use xlink:href="#m63df0185e9" x="172.149" y="41.235812" style="stroke: #000000; stroke-width: 0.5"/>
      </g>
     </g>
    </g>
    <g id="xtick_12">
     <g id="line2d_33">
      <g>
       <use xlink:href="#m86d6a7d52b" x="172.827" y="134.874562" style="stroke: #000000; stroke-width: 0.5"/>
      </g>
     </g>
     <g id="line2d_34">
      <g>
       <use xlink:href="#m63df0185e9" x="172.827" y="41.235812" style="stroke: #000000; stroke-width: 0.5"/>
      </g>
     </g>
    </g>
    <g id="xtick_13">
     <g id="line2d_35">
      <g>
       <use xlink:href="#m86d6a7d52b" x="174.183" y="134.874562" style="stroke: #000000; stroke-width: 0.5"/>
      </g>
     </g>
     <g id="line2d_36">
      <g>
       <use xlink:href="#m63df0185e9" x="174.183" y="41.235812" style="stroke: #000000; stroke-width: 0.5"/>
      </g>
     </g>
    </g>
    <g id="xtick_14">
     <g id="line2d_37">
      <g>
       <use xlink:href="#m86d6a7d52b" x="174.861" y="134.874562" style="stroke: #000000; stroke-width: 0.5"/>
      </g>
     </g>
     <g id="line2d_38">
      <g>
       <use xlink:href="#m63df0185e9" x="174.861" y="41.235812" style="stroke: #000000; stroke-width: 0.5"/>
      </g>
     </g>
    </g>
    <g id="xtick_15">
     <g id="line2d_39">
      <g>
       <use xlink:href="#m86d6a7d52b" x="175.539" y="134.874562" style="stroke: #000000; stroke-width: 0.5"/>
      </g>
     </g>
     <g id="line2d_40">
      <g>
       <use xlink:href="#m63df0185e9" x="175.539" y="41.235812" style="stroke: #000000; stroke-width: 0.5"/>
      </g>
     </g>
    </g>
    <g id="xtick_16">
     <g id="line2d_41">
      <g>
       <use xlink:href="#m86d6a7d52b" x="176.217" y="134.874562" style="stroke: #000000; stroke-width: 0.5"/>
      </g>
     </g>
     <g id="line2d_42">
      <g>
       <use xlink:href="#m63df0185e9" x="176.217" y="41.235812" style="stroke: #000000; stroke-width: 0.5"/>
      </g>
     </g>
    </g>
    <g id="xtick_17">
     <g id="line2d_43">
      <g>
       <use xlink:href="#m86d6a7d52b" x="177.573" y="134.874562" style="stroke: #000000; stroke-width: 0.5"/>
      </g>
     </g>
     <g id="line2d_44">
      <g>
       <use xlink:href="#m63df0185e9" x="177.573" y="41.235812" style="stroke: #000000; stroke-width: 0.5"/>
      </g>
     </g>
    </g>
    <g id="xtick_18">
     <g id="line2d_45">
      <g>
       <use xlink:href="#m86d6a7d52b" x="178.251" y="134.874562" style="stroke: #000000; stroke-width: 0.5"/>
      </g>
     </g>
     <g id="line2d_46">
      <g>
       <use xlink:href="#m63df0185e9" x="178.251" y="41.235812" style="stroke: #000000; stroke-width: 0.5"/>
      </g>
     </g>
    </g>
    <g id="xtick_19">
     <g id="line2d_47">
      <g>
       <use xlink:href="#m86d6a7d52b" x="178.929" y="134.874562" style="stroke: #000000; stroke-width: 0.5"/>
      </g>
     </g>
     <g id="line2d_48">
      <g>
       <use xlink:href="#m63df0185e9" x="178.929" y="41.235812" style="stroke: #000000; stroke-width: 0.5"/>
      </g>
     </g>
    </g>
    <g id="xtick_20">
     <g id="line2d_49">
      <g>
       <use xlink:href="#m86d6a7d52b" x="179.607" y="134.874562" style="stroke: #000000; stroke-width: 0.5"/>
      </g>
     </g>
     <g id="line2d_50">
      <g>
       <use xlink:href="#m63df0185e9" x="179.607" y="41.235812" style="stroke: #000000; stroke-width: 0.5"/>
      </g>
     </g>
    </g>
    <g id="xtick_21">
     <g id="line2d_51">
      <g>
       <use xlink:href="#m86d6a7d52b" x="180.963" y="134.874562" style="stroke: #000000; stroke-width: 0.5"/>
      </g>
     </g>
     <g id="line2d_52">
      <g>
       <use xlink:href="#m63df0185e9" x="180.963" y="41.235812" style="stroke: #000000; stroke-width: 0.5"/>
      </g>
     </g>
    </g>
    <g id="xtick_22">
     <g id="line2d_53">
      <g>
       <use xlink:href="#m86d6a7d52b" x="181.641" y="134.874562" style="stroke: #000000; stroke-width: 0.5"/>
      </g>
     </g>
     <g id="line2d_54">
      <g>
       <use xlink:href="#m63df0185e9" x="181.641" y="41.235812" style="stroke: #000000; stroke-width: 0.5"/>
      </g>
     </g>
    </g>
    <g id="xtick_23">
     <g id="line2d_55">
      <g>
       <use xlink:href="#m86d6a7d52b" x="182.319" y="134.874562" style="stroke: #000000; stroke-width: 0.5"/>
      </g>
     </g>
     <g id="line2d_56">
      <g>
       <use xlink:href="#m63df0185e9" x="182.319" y="41.235812" style="stroke: #000000; stroke-width: 0.5"/>
      </g>
     </g>
    </g>
    <g id="xtick_24">
     <g id="line2d_57">
      <g>
       <use xlink:href="#m86d6a7d52b" x="182.997" y="134.874562" style="stroke: #000000; stroke-width: 0.5"/>
      </g>
     </g>
     <g id="line2d_58">
      <g>
       <use xlink:href="#m63df0185e9" x="182.997" y="41.235812" style="stroke: #000000; stroke-width: 0.5"/>
      </g>
     </g>
    </g>
    <g id="xtick_25">
     <g id="line2d_59">
      <g>
       <use xlink:href="#m86d6a7d52b" x="184.353" y="134.874562" style="stroke: #000000; stroke-width: 0.5"/>
      </g>
     </g>
     <g id="line2d_60">
      <g>
       <use xlink:href="#m63df0185e9" x="184.353" y="41.235812" style="stroke: #000000; stroke-width: 0.5"/>
      </g>
     </g>
    </g>
    <g id="xtick_26">
     <g id="line2d_61">
      <g>
       <use xlink:href="#m86d6a7d52b" x="185.031" y="134.874562" style="stroke: #000000; stroke-width: 0.5"/>
      </g>
     </g>
     <g id="line2d_62">
      <g>
       <use xlink:href="#m63df0185e9" x="185.031" y="41.235812" style="stroke: #000000; stroke-width: 0.5"/>
      </g>
     </g>
    </g>
    <g id="xtick_27">
     <g id="line2d_63">
      <g>
       <use xlink:href="#m86d6a7d52b" x="185.709" y="134.874562" style="stroke: #000000; stroke-width: 0.5"/>
      </g>
     </g>
     <g id="line2d_64">
      <g>
       <use xlink:href="#m63df0185e9" x="185.709" y="41.235812" style="stroke: #000000; stroke-width: 0.5"/>
      </g>
     </g>
    </g>
    <g id="xtick_28">
     <g id="line2d_65">
      <g>
       <use xlink:href="#m86d6a7d52b" x="186.387" y="134.874562" style="stroke: #000000; stroke-width: 0.5"/>
      </g>
     </g>
     <g id="line2d_66">
      <g>
       <use xlink:href="#m63df0185e9" x="186.387" y="41.235812" style="stroke: #000000; stroke-width: 0.5"/>
      </g>
     </g>
    </g>
    <g id="xtick_29">
     <g id="line2d_67">
      <g>
       <use xlink:href="#m86d6a7d52b" x="187.743" y="134.874562" style="stroke: #000000; stroke-width: 0.5"/>
      </g>
     </g>
     <g id="line2d_68">
      <g>
       <use xlink:href="#m63df0185e9" x="187.743" y="41.235812" style="stroke: #000000; stroke-width: 0.5"/>
      </g>
     </g>
    </g>
    <g id="xtick_30">
     <g id="line2d_69">
      <g>
       <use xlink:href="#m86d6a7d52b" x="188.421" y="134.874562" style="stroke: #000000; stroke-width: 0.5"/>
      </g>
     </g>
     <g id="line2d_70">
      <g>
       <use xlink:href="#m63df0185e9" x="188.421" y="41.235812" style="stroke: #000000; stroke-width: 0.5"/>
      </g>
     </g>
    </g>
    <g id="xtick_31">
     <g id="line2d_71">
      <g>
       <use xlink:href="#m86d6a7d52b" x="189.099" y="134.874562" style="stroke: #000000; stroke-width: 0.5"/>
      </g>
     </g>
     <g id="line2d_72">
      <g>
       <use xlink:href="#m63df0185e9" x="189.099" y="41.235812" style="stroke: #000000; stroke-width: 0.5"/>
      </g>
     </g>
    </g>
    <g id="xtick_32">
     <g id="line2d_73">
      <g>
       <use xlink:href="#m86d6a7d52b" x="189.777" y="134.874562" style="stroke: #000000; stroke-width: 0.5"/>
      </g>
     </g>
     <g id="line2d_74">
      <g>
       <use xlink:href="#m63df0185e9" x="189.777" y="41.235812" style="stroke: #000000; stroke-width: 0.5"/>
      </g>
     </g>
    </g>
    <g id="xtick_33">
     <g id="line2d_75">
      <g>
       <use xlink:href="#m86d6a7d52b" x="191.133" y="134.874562" style="stroke: #000000; stroke-width: 0.5"/>
      </g>
     </g>
     <g id="line2d_76">
      <g>
       <use xlink:href="#m63df0185e9" x="191.133" y="41.235812" style="stroke: #000000; stroke-width: 0.5"/>
      </g>
     </g>
    </g>
    <g id="xtick_34">
     <g id="line2d_77">
      <g>
       <use xlink:href="#m86d6a7d52b" x="191.811" y="134.874562" style="stroke: #000000; stroke-width: 0.5"/>
      </g>
     </g>
     <g id="line2d_78">
      <g>
       <use xlink:href="#m63df0185e9" x="191.811" y="41.235812" style="stroke: #000000; stroke-width: 0.5"/>
      </g>
     </g>
    </g>
    <g id="xtick_35">
     <g id="line2d_79">
      <g>
       <use xlink:href="#m86d6a7d52b" x="192.489" y="134.874562" style="stroke: #000000; stroke-width: 0.5"/>
      </g>
     </g>
     <g id="line2d_80">
      <g>
       <use xlink:href="#m63df0185e9" x="192.489" y="41.235812" style="stroke: #000000; stroke-width: 0.5"/>
      </g>
     </g>
    </g>
    <g id="xtick_36">
     <g id="line2d_81">
      <g>
       <use xlink:href="#m86d6a7d52b" x="193.167" y="134.874562" style="stroke: #000000; stroke-width: 0.5"/>
      </g>
     </g>
     <g id="line2d_82">
      <g>
       <use xlink:href="#m63df0185e9" x="193.167" y="41.235812" style="stroke: #000000; stroke-width: 0.5"/>
      </g>
     </g>
    </g>
    <g id="xtick_37">
     <g id="line2d_83">
      <g>
       <use xlink:href="#m86d6a7d52b" x="194.523" y="134.874562" style="stroke: #000000; stroke-width: 0.5"/>
      </g>
     </g>
     <g id="line2d_84">
      <g>
       <use xlink:href="#m63df0185e9" x="194.523" y="41.235812" style="stroke: #000000; stroke-width: 0.5"/>
      </g>
     </g>
    </g>
    <g id="xtick_38">
     <g id="line2d_85">
      <g>
       <use xlink:href="#m86d6a7d52b" x="195.201" y="134.874562" style="stroke: #000000; stroke-width: 0.5"/>
      </g>
     </g>
     <g id="line2d_86">
      <g>
       <use xlink:href="#m63df0185e9" x="195.201" y="41.235812" style="stroke: #000000; stroke-width: 0.5"/>
      </g>
     </g>
    </g>
    <g id="xtick_39">
     <g id="line2d_87">
      <g>
       <use xlink:href="#m86d6a7d52b" x="195.879" y="134.874562" style="stroke: #000000; stroke-width: 0.5"/>
      </g>
     </g>
     <g id="line2d_88">
      <g>
       <use xlink:href="#m63df0185e9" x="195.879" y="41.235812" style="stroke: #000000; stroke-width: 0.5"/>
      </g>
     </g>
    </g>
    <g id="xtick_40">
     <g id="line2d_89">
      <g>
       <use xlink:href="#m86d6a7d52b" x="196.557" y="134.874562" style="stroke: #000000; stroke-width: 0.5"/>
      </g>
     </g>
     <g id="line2d_90">
      <g>
       <use xlink:href="#m63df0185e9" x="196.557" y="41.235812" style="stroke: #000000; stroke-width: 0.5"/>
      </g>
     </g>
    </g>
    <g id="xtick_41">
     <g id="line2d_91">
      <g>
       <use xlink:href="#m86d6a7d52b" x="197.913" y="134.874562" style="stroke: #000000; stroke-width: 0.5"/>
      </g>
     </g>
     <g id="line2d_92">
      <g>
       <use xlink:href="#m63df0185e9" x="197.913" y="41.235812" style="stroke: #000000; stroke-width: 0.5"/>
      </g>
     </g>
    </g>
    <g id="xtick_42">
     <g id="line2d_93">
      <g>
       <use xlink:href="#m86d6a7d52b" x="198.591" y="134.874562" style="stroke: #000000; stroke-width: 0.5"/>
      </g>
     </g>
     <g id="line2d_94">
      <g>
       <use xlink:href="#m63df0185e9" x="198.591" y="41.235812" style="stroke: #000000; stroke-width: 0.5"/>
      </g>
     </g>
    </g>
    <g id="xtick_43">
     <g id="line2d_95">
      <g>
       <use xlink:href="#m86d6a7d52b" x="199.269" y="134.874562" style="stroke: #000000; stroke-width: 0.5"/>
      </g>
     </g>
     <g id="line2d_96">
      <g>
       <use xlink:href="#m63df0185e9" x="199.269" y="41.235812" style="stroke: #000000; stroke-width: 0.5"/>
      </g>
     </g>
    </g>
    <g id="xtick_44">
     <g id="line2d_97">
      <g>
       <use xlink:href="#m86d6a7d52b" x="199.947" y="134.874562" style="stroke: #000000; stroke-width: 0.5"/>
      </g>
     </g>
     <g id="line2d_98">
      <g>
       <use xlink:href="#m63df0185e9" x="199.947" y="41.235812" style="stroke: #000000; stroke-width: 0.5"/>
      </g>
     </g>
    </g>
    <g id="xtick_45">
     <g id="line2d_99">
      <g>
       <use xlink:href="#m86d6a7d52b" x="201.303" y="134.874562" style="stroke: #000000; stroke-width: 0.5"/>
      </g>
     </g>
     <g id="line2d_100">
      <g>
       <use xlink:href="#m63df0185e9" x="201.303" y="41.235812" style="stroke: #000000; stroke-width: 0.5"/>
      </g>
     </g>
    </g>
    <g id="xtick_46">
     <g id="line2d_101">
      <g>
       <use xlink:href="#m86d6a7d52b" x="201.981" y="134.874562" style="stroke: #000000; stroke-width: 0.5"/>
      </g>
     </g>
     <g id="line2d_102">
      <g>
       <use xlink:href="#m63df0185e9" x="201.981" y="41.235812" style="stroke: #000000; stroke-width: 0.5"/>
      </g>
     </g>
    </g>
    <g id="xtick_47">
     <g id="line2d_103">
      <g>
       <use xlink:href="#m86d6a7d52b" x="202.659" y="134.874562" style="stroke: #000000; stroke-width: 0.5"/>
      </g>
     </g>
     <g id="line2d_104">
      <g>
       <use xlink:href="#m63df0185e9" x="202.659" y="41.235812" style="stroke: #000000; stroke-width: 0.5"/>
      </g>
     </g>
    </g>
    <g id="xtick_48">
     <g id="line2d_105">
      <g>
       <use xlink:href="#m86d6a7d52b" x="203.337" y="134.874562" style="stroke: #000000; stroke-width: 0.5"/>
      </g>
     </g>
     <g id="line2d_106">
      <g>
       <use xlink:href="#m63df0185e9" x="203.337" y="41.235812" style="stroke: #000000; stroke-width: 0.5"/>
      </g>
     </g>
    </g>
    <g id="xtick_49">
     <g id="line2d_107">
      <g>
       <use xlink:href="#m86d6a7d52b" x="204.693" y="134.874562" style="stroke: #000000; stroke-width: 0.5"/>
      </g>
     </g>
     <g id="line2d_108">
      <g>
       <use xlink:href="#m63df0185e9" x="204.693" y="41.235812" style="stroke: #000000; stroke-width: 0.5"/>
      </g>
     </g>
    </g>
    <g id="xtick_50">
     <g id="line2d_109">
      <g>
       <use xlink:href="#m86d6a7d52b" x="205.371" y="134.874562" style="stroke: #000000; stroke-width: 0.5"/>
      </g>
     </g>
     <g id="line2d_110">
      <g>
       <use xlink:href="#m63df0185e9" x="205.371" y="41.235812" style="stroke: #000000; stroke-width: 0.5"/>
      </g>
     </g>
    </g>
    <g id="text_11">
     <!-- Hospital ID -->
     <g transform="translate(168.368125 157.925812) scale(0.08 -0.08)">
      <defs>
       <path id="Cmr10-6f" d="M 1600 -72 
Q 1216 -72 887 123 
Q 559 319 368 647 
Q 178 975 178 1363 
Q 178 1656 283 1928 
Q 388 2200 583 2414 
Q 778 2628 1037 2748 
Q 1297 2869 1600 2869 
Q 1994 2869 2317 2661 
Q 2641 2453 2828 2104 
Q 3016 1756 3016 1363 
Q 3016 978 2825 648 
Q 2634 319 2307 123 
Q 1981 -72 1600 -72 
z
M 1600 116 
Q 2113 116 2284 487 
Q 2456 859 2456 1434 
Q 2456 1756 2422 1967 
Q 2388 2178 2272 2350 
Q 2200 2456 2089 2536 
Q 1978 2616 1854 2658 
Q 1731 2700 1600 2700 
Q 1400 2700 1220 2609 
Q 1041 2519 922 2350 
Q 803 2169 770 1951 
Q 738 1734 738 1434 
Q 738 1075 800 789 
Q 863 503 1052 309 
Q 1241 116 1600 116 
z
" transform="scale(0.015625)"/>
       <path id="Cmr10-73" d="M 213 -19 
L 213 1025 
Q 213 1075 269 1075 
L 347 1075 
Q 384 1075 397 1025 
Q 575 97 1259 97 
Q 1563 97 1767 234 
Q 1972 372 1972 659 
Q 1972 866 1812 1011 
Q 1653 1156 1434 1209 
L 1006 1294 
Q 791 1341 614 1437 
Q 438 1534 325 1695 
Q 213 1856 213 2069 
Q 213 2350 361 2529 
Q 509 2709 746 2789 
Q 984 2869 1259 2869 
Q 1588 2869 1831 2694 
L 2016 2853 
Q 2016 2869 2047 2869 
L 2094 2869 
Q 2113 2869 2128 2851 
Q 2144 2834 2144 2816 
L 2144 1978 
Q 2144 1919 2094 1919 
L 2016 1919 
Q 1959 1919 1959 1978 
Q 1959 2313 1773 2516 
Q 1588 2719 1253 2719 
Q 966 2719 755 2612 
Q 544 2506 544 2247 
Q 544 2069 695 1955 
Q 847 1841 1050 1791 
L 1484 1709 
Q 1703 1659 1892 1540 
Q 2081 1422 2192 1240 
Q 2303 1059 2303 831 
Q 2303 600 2223 429 
Q 2144 259 2001 146 
Q 1859 34 1665 -19 
Q 1472 -72 1259 -72 
Q 859 -72 575 197 
L 341 -56 
Q 341 -72 306 -72 
L 269 -72 
Q 213 -72 213 -19 
z
" transform="scale(0.015625)"/>
       <path id="Cmr10-70" d="M 166 -1241 
L 166 -1019 
Q 384 -1019 525 -981 
Q 666 -944 666 -813 
L 666 2272 
Q 666 2447 541 2490 
Q 416 2534 166 2534 
L 166 2759 
L 1113 2828 
L 1113 2431 
Q 1288 2625 1520 2726 
Q 1753 2828 2016 2828 
Q 2394 2828 2697 2623 
Q 3000 2419 3170 2086 
Q 3341 1753 3341 1381 
Q 3341 994 3152 659 
Q 2963 325 2636 126 
Q 2309 -72 1919 -72 
Q 1453 -72 1131 306 
L 1131 -813 
Q 1131 -944 1273 -981 
Q 1416 -1019 1631 -1019 
L 1631 -1241 
L 166 -1241 
z
M 1131 622 
Q 1244 394 1444 245 
Q 1644 97 1881 97 
Q 2103 97 2273 215 
Q 2444 334 2559 534 
Q 2675 734 2729 954 
Q 2784 1175 2784 1381 
Q 2784 1638 2692 1936 
Q 2600 2234 2411 2439 
Q 2222 2644 1953 2644 
Q 1694 2644 1476 2511 
Q 1259 2378 1131 2150 
L 1131 622 
z
" transform="scale(0.015625)"/>
       <path id="Cmr10-69" d="M 197 0 
L 197 225 
Q 416 225 556 259 
Q 697 294 697 428 
L 697 2175 
Q 697 2422 601 2478 
Q 506 2534 225 2534 
L 225 2759 
L 1147 2828 
L 1147 428 
Q 1147 294 1269 259 
Q 1391 225 1594 225 
L 1594 0 
L 197 0 
z
M 469 3928 
Q 469 4069 575 4175 
Q 681 4281 819 4281 
Q 909 4281 993 4234 
Q 1078 4188 1125 4103 
Q 1172 4019 1172 3928 
Q 1172 3791 1065 3684 
Q 959 3578 819 3578 
Q 681 3578 575 3684 
Q 469 3791 469 3928 
z
" transform="scale(0.015625)"/>
       <path id="Cmr10-74" d="M 653 769 
L 653 2534 
L 122 2534 
L 122 2700 
Q 541 2700 737 3090 
Q 934 3481 934 3938 
L 1119 3938 
L 1119 2759 
L 2022 2759 
L 2022 2534 
L 1119 2534 
L 1119 781 
Q 1119 516 1208 316 
Q 1297 116 1528 116 
Q 1747 116 1844 327 
Q 1941 538 1941 781 
L 1941 1159 
L 2125 1159 
L 2125 769 
Q 2125 569 2051 373 
Q 1978 178 1834 53 
Q 1691 -72 1484 -72 
Q 1100 -72 876 158 
Q 653 388 653 769 
z
" transform="scale(0.015625)"/>
       <path id="Cmr10-61" d="M 256 628 
Q 256 1009 556 1248 
Q 856 1488 1276 1586 
Q 1697 1684 2075 1684 
L 2075 1947 
Q 2075 2131 1994 2304 
Q 1913 2478 1759 2589 
Q 1606 2700 1422 2700 
Q 997 2700 775 2509 
Q 897 2509 976 2417 
Q 1056 2325 1056 2203 
Q 1056 2075 965 1984 
Q 875 1894 750 1894 
Q 622 1894 531 1984 
Q 441 2075 441 2203 
Q 441 2541 747 2705 
Q 1053 2869 1422 2869 
Q 1681 2869 1943 2758 
Q 2206 2647 2373 2440 
Q 2541 2234 2541 1959 
L 2541 519 
Q 2541 394 2594 289 
Q 2647 184 2759 184 
Q 2866 184 2917 290 
Q 2969 397 2969 519 
L 2969 928 
L 3156 928 
L 3156 519 
Q 3156 375 3081 245 
Q 3006 116 2879 39 
Q 2753 -38 2606 -38 
Q 2419 -38 2283 107 
Q 2147 253 2131 453 
Q 2013 213 1781 70 
Q 1550 -72 1288 -72 
Q 1044 -72 808 0 
Q 572 72 414 226 
Q 256 381 256 628 
z
M 775 628 
Q 775 403 940 250 
Q 1106 97 1331 97 
Q 1538 97 1706 200 
Q 1875 303 1975 481 
Q 2075 659 2075 856 
L 2075 1522 
Q 1784 1522 1479 1426 
Q 1175 1331 975 1128 
Q 775 925 775 628 
z
" transform="scale(0.015625)"/>
       <path id="Cmr10-6c" d="M 197 0 
L 197 225 
Q 416 225 556 259 
Q 697 294 697 428 
L 697 3788 
Q 697 3959 645 4036 
Q 594 4113 497 4130 
Q 400 4147 197 4147 
L 197 4372 
L 1147 4441 
L 1147 428 
Q 1147 294 1287 259 
Q 1428 225 1644 225 
L 1644 0 
L 197 0 
z
" transform="scale(0.015625)"/>
       <path id="Cmr10-20" transform="scale(0.015625)"/>
       <path id="Cmr10-49" d="M 166 0 
L 166 225 
Q 856 225 856 428 
L 856 3944 
Q 856 4147 166 4147 
L 166 4372 
L 2144 4372 
L 2144 4147 
Q 1453 4147 1453 3944 
L 1453 428 
Q 1453 225 2144 225 
L 2144 0 
L 166 0 
z
" transform="scale(0.015625)"/>
       <path id="Cmr10-44" d="M 213 0 
L 213 225 
Q 872 225 872 428 
L 872 3944 
Q 872 4147 213 4147 
L 213 4372 
L 2572 4372 
Q 3009 4372 3371 4183 
Q 3734 3994 3990 3678 
Q 4247 3363 4386 2963 
Q 4525 2563 4525 2144 
Q 4525 1738 4384 1355 
Q 4244 972 3980 664 
Q 3716 356 3355 178 
Q 2994 0 2572 0 
L 213 0 
z
M 1447 428 
Q 1447 291 1525 258 
Q 1603 225 1772 225 
L 2406 225 
Q 2734 225 3029 367 
Q 3325 509 3519 763 
Q 3722 1031 3790 1364 
Q 3859 1697 3859 2144 
Q 3859 2609 3790 2959 
Q 3722 3309 3519 3584 
Q 3328 3856 3034 4001 
Q 2741 4147 2406 4147 
L 1772 4147 
Q 1656 4147 1592 4137 
Q 1528 4128 1487 4083 
Q 1447 4038 1447 3944 
L 1447 428 
z
" transform="scale(0.015625)"/>
      </defs>
      <use xlink:href="#Cmr10-48"/>
      <use xlink:href="#Cmr10-6f" x="75"/>
      <use xlink:href="#Cmr10-73" x="125"/>
      <use xlink:href="#Cmr10-70" x="164.404297"/>
      <use xlink:href="#Cmr10-69" x="219.921875"/>
      <use xlink:href="#Cmr10-74" x="247.607422"/>
      <use xlink:href="#Cmr10-61" x="286.425781"/>
      <use xlink:href="#Cmr10-6c" x="336.425781"/>
      <use xlink:href="#Cmr10-20" x="364.111328"/>
      <use xlink:href="#Cmr10-49" x="397.412109"/>
      <use xlink:href="#Cmr10-44" x="433.496094"/>
     </g>
    </g>
   </g>
   <g id="matplotlib.axis_2">
    <g id="ytick_1">
     <g id="line2d_111">
      <path d="M 171.81 134.874562 
L 205.71 134.874562 
" clip-path="url(#pe5aebfc2ce)" style="fill: none; stroke-dasharray: 1.85,0.8; stroke-dashoffset: 0; stroke: #000000; stroke-opacity: 0.5; stroke-width: 0.5"/>
     </g>
     <g id="line2d_112">
      <defs>
       <path id="mbfe7ffc884" d="M 0 0 
L 3 0 
" style="stroke: #000000; stroke-width: 0.5"/>
      </defs>
      <g>
       <use xlink:href="#mbfe7ffc884" x="171.81" y="134.874562" style="stroke: #000000; stroke-width: 0.5"/>
      </g>
     </g>
     <g id="line2d_113">
      <defs>
       <path id="medb0d8cef7" d="M 0 0 
L -3 0 
" style="stroke: #000000; stroke-width: 0.5"/>
      </defs>
      <g>
       <use xlink:href="#medb0d8cef7" x="205.71" y="134.874562" style="stroke: #000000; stroke-width: 0.5"/>
      </g>
     </g>
     <g id="text_12">
      <!-- $\mathdefault{0}$ -->
      <g transform="translate(164.31 137.650187) scale(0.08 -0.08)">
       <use xlink:href="#Cmr10-30" transform="translate(0 0.390625)"/>
      </g>
     </g>
    </g>
    <g id="ytick_2">
     <g id="line2d_114">
      <path d="M 171.81 113.10216 
L 205.71 113.10216 
" clip-path="url(#pe5aebfc2ce)" style="fill: none; stroke-dasharray: 1.85,0.8; stroke-dashoffset: 0; stroke: #000000; stroke-opacity: 0.5; stroke-width: 0.5"/>
     </g>
     <g id="line2d_115">
      <g>
       <use xlink:href="#mbfe7ffc884" x="171.81" y="113.10216" style="stroke: #000000; stroke-width: 0.5"/>
      </g>
     </g>
     <g id="line2d_116">
      <g>
       <use xlink:href="#medb0d8cef7" x="205.71" y="113.10216" style="stroke: #000000; stroke-width: 0.5"/>
      </g>
     </g>
     <g id="text_13">
      <!-- $\mathdefault{500}$ -->
      <g transform="translate(156.31 115.877785) scale(0.08 -0.08)">
       <use xlink:href="#Cmr10-35" transform="translate(0 0.390625)"/>
       <use xlink:href="#Cmr10-30" transform="translate(50 0.390625)"/>
       <use xlink:href="#Cmr10-30" transform="translate(100 0.390625)"/>
      </g>
     </g>
    </g>
    <g id="ytick_3">
     <g id="line2d_117">
      <path d="M 171.81 91.329757 
L 205.71 91.329757 
" clip-path="url(#pe5aebfc2ce)" style="fill: none; stroke-dasharray: 1.85,0.8; stroke-dashoffset: 0; stroke: #000000; stroke-opacity: 0.5; stroke-width: 0.5"/>
     </g>
     <g id="line2d_118">
      <g>
       <use xlink:href="#mbfe7ffc884" x="171.81" y="91.329757" style="stroke: #000000; stroke-width: 0.5"/>
      </g>
     </g>
     <g id="line2d_119">
      <g>
       <use xlink:href="#medb0d8cef7" x="205.71" y="91.329757" style="stroke: #000000; stroke-width: 0.5"/>
      </g>
     </g>
     <g id="text_14">
      <!-- $\mathdefault{1000}$ -->
      <g transform="translate(152.31 94.105382) scale(0.08 -0.08)">
       <use xlink:href="#Cmr10-31" transform="translate(0 0.390625)"/>
       <use xlink:href="#Cmr10-30" transform="translate(50 0.390625)"/>
       <use xlink:href="#Cmr10-30" transform="translate(100 0.390625)"/>
       <use xlink:href="#Cmr10-30" transform="translate(150 0.390625)"/>
      </g>
     </g>
    </g>
    <g id="ytick_4">
     <g id="line2d_120">
      <path d="M 171.81 69.557354 
L 205.71 69.557354 
" clip-path="url(#pe5aebfc2ce)" style="fill: none; stroke-dasharray: 1.85,0.8; stroke-dashoffset: 0; stroke: #000000; stroke-opacity: 0.5; stroke-width: 0.5"/>
     </g>
     <g id="line2d_121">
      <g>
       <use xlink:href="#mbfe7ffc884" x="171.81" y="69.557354" style="stroke: #000000; stroke-width: 0.5"/>
      </g>
     </g>
     <g id="line2d_122">
      <g>
       <use xlink:href="#medb0d8cef7" x="205.71" y="69.557354" style="stroke: #000000; stroke-width: 0.5"/>
      </g>
     </g>
     <g id="text_15">
      <!-- $\mathdefault{1500}$ -->
      <g transform="translate(152.31 72.332979) scale(0.08 -0.08)">
       <use xlink:href="#Cmr10-31" transform="translate(0 0.390625)"/>
       <use xlink:href="#Cmr10-35" transform="translate(50 0.390625)"/>
       <use xlink:href="#Cmr10-30" transform="translate(100 0.390625)"/>
       <use xlink:href="#Cmr10-30" transform="translate(150 0.390625)"/>
      </g>
     </g>
    </g>
    <g id="ytick_5">
     <g id="line2d_123">
      <path d="M 171.81 47.784951 
L 205.71 47.784951 
" clip-path="url(#pe5aebfc2ce)" style="fill: none; stroke-dasharray: 1.85,0.8; stroke-dashoffset: 0; stroke: #000000; stroke-opacity: 0.5; stroke-width: 0.5"/>
     </g>
     <g id="line2d_124">
      <g>
       <use xlink:href="#mbfe7ffc884" x="171.81" y="47.784951" style="stroke: #000000; stroke-width: 0.5"/>
      </g>
     </g>
     <g id="line2d_125">
      <g>
       <use xlink:href="#medb0d8cef7" x="205.71" y="47.784951" style="stroke: #000000; stroke-width: 0.5"/>
      </g>
     </g>
     <g id="text_16">
      <!-- $\mathdefault{2000}$ -->
      <g transform="translate(152.31 50.560576) scale(0.08 -0.08)">
       <use xlink:href="#Cmr10-32" transform="translate(0 0.390625)"/>
       <use xlink:href="#Cmr10-30" transform="translate(50 0.390625)"/>
       <use xlink:href="#Cmr10-30" transform="translate(100 0.390625)"/>
       <use xlink:href="#Cmr10-30" transform="translate(150 0.390625)"/>
      </g>
     </g>
    </g>
    <g id="ytick_6">
     <g id="line2d_126">
      <defs>
       <path id="mb35907d46c" d="M 0 0 
L 1.5 0 
" style="stroke: #000000; stroke-width: 0.5"/>
      </defs>
      <g>
       <use xlink:href="#mb35907d46c" x="171.81" y="130.520082" style="stroke: #000000; stroke-width: 0.5"/>
      </g>
     </g>
     <g id="line2d_127">
      <defs>
       <path id="me271c086cb" d="M 0 0 
L -1.5 0 
" style="stroke: #000000; stroke-width: 0.5"/>
      </defs>
      <g>
       <use xlink:href="#me271c086cb" x="205.71" y="130.520082" style="stroke: #000000; stroke-width: 0.5"/>
      </g>
     </g>
    </g>
    <g id="ytick_7">
     <g id="line2d_128">
      <g>
       <use xlink:href="#mb35907d46c" x="171.81" y="126.165601" style="stroke: #000000; stroke-width: 0.5"/>
      </g>
     </g>
     <g id="line2d_129">
      <g>
       <use xlink:href="#me271c086cb" x="205.71" y="126.165601" style="stroke: #000000; stroke-width: 0.5"/>
      </g>
     </g>
    </g>
    <g id="ytick_8">
     <g id="line2d_130">
      <g>
       <use xlink:href="#mb35907d46c" x="171.81" y="121.811121" style="stroke: #000000; stroke-width: 0.5"/>
      </g>
     </g>
     <g id="line2d_131">
      <g>
       <use xlink:href="#me271c086cb" x="205.71" y="121.811121" style="stroke: #000000; stroke-width: 0.5"/>
      </g>
     </g>
    </g>
    <g id="ytick_9">
     <g id="line2d_132">
      <g>
       <use xlink:href="#mb35907d46c" x="171.81" y="117.45664" style="stroke: #000000; stroke-width: 0.5"/>
      </g>
     </g>
     <g id="line2d_133">
      <g>
       <use xlink:href="#me271c086cb" x="205.71" y="117.45664" style="stroke: #000000; stroke-width: 0.5"/>
      </g>
     </g>
    </g>
    <g id="ytick_10">
     <g id="line2d_134">
      <g>
       <use xlink:href="#mb35907d46c" x="171.81" y="108.747679" style="stroke: #000000; stroke-width: 0.5"/>
      </g>
     </g>
     <g id="line2d_135">
      <g>
       <use xlink:href="#me271c086cb" x="205.71" y="108.747679" style="stroke: #000000; stroke-width: 0.5"/>
      </g>
     </g>
    </g>
    <g id="ytick_11">
     <g id="line2d_136">
      <g>
       <use xlink:href="#mb35907d46c" x="171.81" y="104.393199" style="stroke: #000000; stroke-width: 0.5"/>
      </g>
     </g>
     <g id="line2d_137">
      <g>
       <use xlink:href="#me271c086cb" x="205.71" y="104.393199" style="stroke: #000000; stroke-width: 0.5"/>
      </g>
     </g>
    </g>
    <g id="ytick_12">
     <g id="line2d_138">
      <g>
       <use xlink:href="#mb35907d46c" x="171.81" y="100.038718" style="stroke: #000000; stroke-width: 0.5"/>
      </g>
     </g>
     <g id="line2d_139">
      <g>
       <use xlink:href="#me271c086cb" x="205.71" y="100.038718" style="stroke: #000000; stroke-width: 0.5"/>
      </g>
     </g>
    </g>
    <g id="ytick_13">
     <g id="line2d_140">
      <g>
       <use xlink:href="#mb35907d46c" x="171.81" y="95.684237" style="stroke: #000000; stroke-width: 0.5"/>
      </g>
     </g>
     <g id="line2d_141">
      <g>
       <use xlink:href="#me271c086cb" x="205.71" y="95.684237" style="stroke: #000000; stroke-width: 0.5"/>
      </g>
     </g>
    </g>
    <g id="ytick_14">
     <g id="line2d_142">
      <g>
       <use xlink:href="#mb35907d46c" x="171.81" y="86.975276" style="stroke: #000000; stroke-width: 0.5"/>
      </g>
     </g>
     <g id="line2d_143">
      <g>
       <use xlink:href="#me271c086cb" x="205.71" y="86.975276" style="stroke: #000000; stroke-width: 0.5"/>
      </g>
     </g>
    </g>
    <g id="ytick_15">
     <g id="line2d_144">
      <g>
       <use xlink:href="#mb35907d46c" x="171.81" y="82.620796" style="stroke: #000000; stroke-width: 0.5"/>
      </g>
     </g>
     <g id="line2d_145">
      <g>
       <use xlink:href="#me271c086cb" x="205.71" y="82.620796" style="stroke: #000000; stroke-width: 0.5"/>
      </g>
     </g>
    </g>
    <g id="ytick_16">
     <g id="line2d_146">
      <g>
       <use xlink:href="#mb35907d46c" x="171.81" y="78.266315" style="stroke: #000000; stroke-width: 0.5"/>
      </g>
     </g>
     <g id="line2d_147">
      <g>
       <use xlink:href="#me271c086cb" x="205.71" y="78.266315" style="stroke: #000000; stroke-width: 0.5"/>
      </g>
     </g>
    </g>
    <g id="ytick_17">
     <g id="line2d_148">
      <g>
       <use xlink:href="#mb35907d46c" x="171.81" y="73.911835" style="stroke: #000000; stroke-width: 0.5"/>
      </g>
     </g>
     <g id="line2d_149">
      <g>
       <use xlink:href="#me271c086cb" x="205.71" y="73.911835" style="stroke: #000000; stroke-width: 0.5"/>
      </g>
     </g>
    </g>
    <g id="ytick_18">
     <g id="line2d_150">
      <g>
       <use xlink:href="#mb35907d46c" x="171.81" y="65.202874" style="stroke: #000000; stroke-width: 0.5"/>
      </g>
     </g>
     <g id="line2d_151">
      <g>
       <use xlink:href="#me271c086cb" x="205.71" y="65.202874" style="stroke: #000000; stroke-width: 0.5"/>
      </g>
     </g>
    </g>
    <g id="ytick_19">
     <g id="line2d_152">
      <g>
       <use xlink:href="#mb35907d46c" x="171.81" y="60.848393" style="stroke: #000000; stroke-width: 0.5"/>
      </g>
     </g>
     <g id="line2d_153">
      <g>
       <use xlink:href="#me271c086cb" x="205.71" y="60.848393" style="stroke: #000000; stroke-width: 0.5"/>
      </g>
     </g>
    </g>
    <g id="ytick_20">
     <g id="line2d_154">
      <g>
       <use xlink:href="#mb35907d46c" x="171.81" y="56.493912" style="stroke: #000000; stroke-width: 0.5"/>
      </g>
     </g>
     <g id="line2d_155">
      <g>
       <use xlink:href="#me271c086cb" x="205.71" y="56.493912" style="stroke: #000000; stroke-width: 0.5"/>
      </g>
     </g>
    </g>
    <g id="ytick_21">
     <g id="line2d_156">
      <g>
       <use xlink:href="#mb35907d46c" x="171.81" y="52.139432" style="stroke: #000000; stroke-width: 0.5"/>
      </g>
     </g>
     <g id="line2d_157">
      <g>
       <use xlink:href="#me271c086cb" x="205.71" y="52.139432" style="stroke: #000000; stroke-width: 0.5"/>
      </g>
     </g>
    </g>
    <g id="ytick_22">
     <g id="line2d_158">
      <g>
       <use xlink:href="#mb35907d46c" x="171.81" y="43.430471" style="stroke: #000000; stroke-width: 0.5"/>
      </g>
     </g>
     <g id="line2d_159">
      <g>
       <use xlink:href="#me271c086cb" x="205.71" y="43.430471" style="stroke: #000000; stroke-width: 0.5"/>
      </g>
     </g>
    </g>
    <g id="text_17">
     <!-- Number of Data Points -->
     <g transform="translate(146.75875 129.167062) rotate(-90) scale(0.08 -0.08)">
      <defs>
       <path id="Cmr10-4e" d="M 197 0 
L 197 225 
Q 856 225 856 603 
L 856 4109 
Q 647 4147 197 4147 
L 197 4372 
L 1422 4372 
Q 1453 4372 1466 4347 
L 3731 1013 
L 3731 3769 
Q 3731 4147 3072 4147 
L 3072 4372 
L 4594 4372 
L 4594 4147 
Q 3938 4147 3938 3769 
L 3938 56 
Q 3938 38 3913 19 
Q 3888 0 3872 0 
L 3794 0 
Q 3763 0 3750 25 
L 1063 3981 
L 1063 603 
Q 1063 225 1722 225 
L 1722 0 
L 197 0 
z
" transform="scale(0.015625)"/>
       <path id="Cmr10-75" d="M 691 763 
L 691 2175 
Q 691 2347 639 2423 
Q 588 2500 491 2517 
Q 394 2534 191 2534 
L 191 2759 
L 1159 2828 
L 1159 763 
Q 1159 513 1195 373 
Q 1231 234 1348 165 
Q 1466 97 1722 97 
Q 2066 97 2269 384 
Q 2472 672 2472 1038 
L 2472 2175 
Q 2472 2347 2419 2423 
Q 2366 2500 2270 2517 
Q 2175 2534 1972 2534 
L 1972 2759 
L 2938 2828 
L 2938 581 
Q 2938 413 2989 336 
Q 3041 259 3137 242 
Q 3234 225 3438 225 
L 3438 0 
L 2491 -72 
L 2491 469 
Q 2372 228 2159 78 
Q 1947 -72 1691 -72 
Q 1231 -72 961 123 
Q 691 319 691 763 
z
" transform="scale(0.015625)"/>
       <path id="Cmr10-6d" d="M 191 0 
L 191 225 
Q 409 225 550 259 
Q 691 294 691 428 
L 691 2175 
Q 691 2347 639 2423 
Q 588 2500 491 2517 
Q 394 2534 191 2534 
L 191 2759 
L 1119 2828 
L 1119 2203 
Q 1247 2478 1498 2653 
Q 1750 2828 2047 2828 
Q 2784 2828 2913 2228 
Q 3041 2497 3287 2662 
Q 3534 2828 3828 2828 
Q 4119 2828 4317 2734 
Q 4516 2641 4616 2448 
Q 4716 2256 4716 1966 
L 4716 428 
Q 4716 294 4858 259 
Q 5000 225 5216 225 
L 5216 0 
L 3750 0 
L 3750 225 
Q 3969 225 4109 259 
Q 4250 294 4250 428 
L 4250 1947 
Q 4250 2269 4159 2466 
Q 4069 2663 3788 2663 
Q 3419 2663 3178 2366 
Q 2938 2069 2938 1691 
L 2938 428 
Q 2938 294 3078 259 
Q 3219 225 3438 225 
L 3438 0 
L 1972 0 
L 1972 225 
Q 2191 225 2331 259 
Q 2472 294 2472 428 
L 2472 1947 
Q 2472 2259 2381 2461 
Q 2291 2663 2009 2663 
Q 1638 2663 1398 2366 
Q 1159 2069 1159 1691 
L 1159 428 
Q 1159 294 1300 259 
Q 1441 225 1656 225 
L 1656 0 
L 191 0 
z
" transform="scale(0.015625)"/>
       <path id="Cmr10-62" d="M 666 0 
L 666 3788 
Q 666 3959 614 4036 
Q 563 4113 466 4130 
Q 369 4147 166 4147 
L 166 4372 
L 1113 4441 
L 1113 2438 
Q 1219 2556 1361 2645 
Q 1503 2734 1665 2781 
Q 1828 2828 1997 2828 
Q 2284 2828 2529 2712 
Q 2775 2597 2956 2394 
Q 3138 2191 3239 1927 
Q 3341 1663 3341 1381 
Q 3341 994 3152 659 
Q 2963 325 2636 126 
Q 2309 -72 1919 -72 
Q 1675 -72 1447 53 
Q 1219 178 1069 384 
L 850 0 
L 666 0 
z
M 1131 628 
Q 1238 394 1438 245 
Q 1638 97 1881 97 
Q 2213 97 2417 287 
Q 2622 478 2703 768 
Q 2784 1059 2784 1381 
Q 2784 1922 2644 2203 
Q 2581 2328 2473 2434 
Q 2366 2541 2233 2602 
Q 2100 2663 1953 2663 
Q 1697 2663 1478 2527 
Q 1259 2391 1131 2163 
L 1131 628 
z
" transform="scale(0.015625)"/>
       <path id="Cmr10-65" d="M 1594 -72 
Q 1203 -72 876 133 
Q 550 338 364 680 
Q 178 1022 178 1403 
Q 178 1778 348 2115 
Q 519 2453 823 2661 
Q 1128 2869 1503 2869 
Q 1797 2869 2014 2770 
Q 2231 2672 2372 2497 
Q 2513 2322 2584 2084 
Q 2656 1847 2656 1563 
Q 2656 1478 2591 1478 
L 738 1478 
L 738 1409 
Q 738 878 952 497 
Q 1166 116 1650 116 
Q 1847 116 2014 203 
Q 2181 291 2304 447 
Q 2428 603 2472 781 
Q 2478 803 2495 820 
Q 2513 838 2534 838 
L 2591 838 
Q 2656 838 2656 756 
Q 2566 394 2266 161 
Q 1966 -72 1594 -72 
z
M 744 1638 
L 2203 1638 
Q 2203 1878 2136 2125 
Q 2069 2372 1912 2536 
Q 1756 2700 1503 2700 
Q 1141 2700 942 2361 
Q 744 2022 744 1638 
z
" transform="scale(0.015625)"/>
       <path id="Cmr10-72" d="M 166 0 
L 166 225 
Q 384 225 525 259 
Q 666 294 666 428 
L 666 2175 
Q 666 2347 614 2423 
Q 563 2500 466 2517 
Q 369 2534 166 2534 
L 166 2759 
L 1081 2828 
L 1081 2203 
Q 1184 2481 1375 2654 
Q 1566 2828 1838 2828 
Q 2028 2828 2178 2715 
Q 2328 2603 2328 2419 
Q 2328 2303 2245 2217 
Q 2163 2131 2041 2131 
Q 1922 2131 1837 2215 
Q 1753 2300 1753 2419 
Q 1753 2591 1875 2663 
L 1838 2663 
Q 1578 2663 1414 2475 
Q 1250 2288 1181 2009 
Q 1113 1731 1113 1478 
L 1113 428 
Q 1113 225 1734 225 
L 1734 0 
L 166 0 
z
" transform="scale(0.015625)"/>
       <path id="Cmr10-66" d="M 206 0 
L 206 225 
Q 422 225 562 259 
Q 703 294 703 428 
L 703 2534 
L 213 2534 
L 213 2759 
L 703 2759 
L 703 3525 
Q 703 3731 789 3911 
Q 875 4091 1020 4225 
Q 1166 4359 1355 4436 
Q 1544 4513 1747 4513 
Q 1963 4513 2136 4384 
Q 2309 4256 2309 4044 
Q 2309 3922 2226 3839 
Q 2144 3756 2022 3756 
Q 1900 3756 1814 3839 
Q 1728 3922 1728 4044 
Q 1728 4244 1900 4313 
Q 1797 4347 1716 4347 
Q 1528 4347 1395 4214 
Q 1263 4081 1197 3890 
Q 1131 3700 1131 3513 
L 1131 2759 
L 1869 2759 
L 1869 2534 
L 1153 2534 
L 1153 428 
Q 1153 297 1340 261 
Q 1528 225 1772 225 
L 1772 0 
L 206 0 
z
" transform="scale(0.015625)"/>
       <path id="Cmr10-50" d="M 213 0 
L 213 225 
Q 872 225 872 428 
L 872 3944 
Q 872 4147 213 4147 
L 213 4372 
L 2491 4372 
Q 2841 4372 3191 4228 
Q 3541 4084 3767 3809 
Q 3994 3534 3994 3169 
Q 3994 2813 3766 2544 
Q 3538 2275 3191 2136 
Q 2844 1997 2491 1997 
L 1466 1997 
L 1466 428 
Q 1466 225 2125 225 
L 2125 0 
L 213 0 
z
M 1447 2188 
L 2316 2188 
Q 2669 2188 2887 2289 
Q 3106 2391 3207 2605 
Q 3309 2819 3309 3169 
Q 3309 3691 3079 3919 
Q 2850 4147 2316 4147 
L 1772 4147 
Q 1656 4147 1592 4137 
Q 1528 4128 1487 4083 
Q 1447 4038 1447 3944 
L 1447 2188 
z
" transform="scale(0.015625)"/>
       <path id="Cmr10-6e" d="M 191 0 
L 191 225 
Q 409 225 550 259 
Q 691 294 691 428 
L 691 2175 
Q 691 2347 639 2423 
Q 588 2500 491 2517 
Q 394 2534 191 2534 
L 191 2759 
L 1119 2828 
L 1119 2203 
Q 1247 2478 1498 2653 
Q 1750 2828 2047 2828 
Q 2491 2828 2714 2615 
Q 2938 2403 2938 1966 
L 2938 428 
Q 2938 294 3078 259 
Q 3219 225 3438 225 
L 3438 0 
L 1972 0 
L 1972 225 
Q 2191 225 2331 259 
Q 2472 294 2472 428 
L 2472 1947 
Q 2472 2259 2381 2461 
Q 2291 2663 2009 2663 
Q 1638 2663 1398 2366 
Q 1159 2069 1159 1691 
L 1159 428 
Q 1159 294 1300 259 
Q 1441 225 1656 225 
L 1656 0 
L 191 0 
z
" transform="scale(0.015625)"/>
      </defs>
      <use xlink:href="#Cmr10-4e"/>
      <use xlink:href="#Cmr10-75" x="75"/>
      <use xlink:href="#Cmr10-6d" x="130.517578"/>
      <use xlink:href="#Cmr10-62" x="213.818359"/>
      <use xlink:href="#Cmr10-65" x="269.335938"/>
      <use xlink:href="#Cmr10-72" x="313.720703"/>
      <use xlink:href="#Cmr10-20" x="352.832031"/>
      <use xlink:href="#Cmr10-6f" x="386.132812"/>
      <use xlink:href="#Cmr10-66" x="436.132812"/>
      <use xlink:href="#Cmr10-20" x="466.650391"/>
      <use xlink:href="#Cmr10-44" x="499.951172"/>
      <use xlink:href="#Cmr10-61" x="576.269531"/>
      <use xlink:href="#Cmr10-74" x="626.269531"/>
      <use xlink:href="#Cmr10-61" x="665.087891"/>
      <use xlink:href="#Cmr10-20" x="715.087891"/>
      <use xlink:href="#Cmr10-50" x="748.388672"/>
      <use xlink:href="#Cmr10-6f" x="816.40625"/>
      <use xlink:href="#Cmr10-69" x="866.40625"/>
      <use xlink:href="#Cmr10-6e" x="894.091797"/>
      <use xlink:href="#Cmr10-74" x="949.609375"/>
      <use xlink:href="#Cmr10-73" x="988.427734"/>
     </g>
    </g>
   </g>
   <g id="patch_3">
    <path d="M 172.6575 134.874562 
L 174.3525 134.874562 
L 174.3525 105.699543 
L 172.6575 105.699543 
z
" clip-path="url(#pe5aebfc2ce)"/>
   </g>
   <g id="patch_4">
    <path d="M 176.0475 134.874562 
L 177.7425 134.874562 
L 177.7425 134.874562 
L 176.0475 134.874562 
z
" clip-path="url(#pe5aebfc2ce)"/>
   </g>
   <g id="patch_5">
    <path d="M 179.4375 134.874562 
L 181.1325 134.874562 
L 181.1325 134.874562 
L 179.4375 134.874562 
z
" clip-path="url(#pe5aebfc2ce)"/>
   </g>
   <g id="patch_6">
    <path d="M 182.8275 134.874562 
L 184.5225 134.874562 
L 184.5225 134.874562 
L 182.8275 134.874562 
z
" clip-path="url(#pe5aebfc2ce)"/>
   </g>
   <g id="patch_7">
    <path d="M 186.2175 134.874562 
L 187.9125 134.874562 
L 187.9125 134.874562 
L 186.2175 134.874562 
z
" clip-path="url(#pe5aebfc2ce)"/>
   </g>
   <g id="patch_8">
    <path d="M 189.6075 134.874562 
L 191.3025 134.874562 
L 191.3025 134.874562 
L 189.6075 134.874562 
z
" clip-path="url(#pe5aebfc2ce)"/>
   </g>
   <g id="patch_9">
    <path d="M 192.9975 134.874562 
L 194.6925 134.874562 
L 194.6925 134.874562 
L 192.9975 134.874562 
z
" clip-path="url(#pe5aebfc2ce)"/>
   </g>
   <g id="patch_10">
    <path d="M 196.3875 134.874562 
L 198.0825 134.874562 
L 198.0825 112.405443 
L 196.3875 112.405443 
z
" clip-path="url(#pe5aebfc2ce)"/>
   </g>
   <g id="patch_11">
    <path d="M 199.7775 134.874562 
L 201.4725 134.874562 
L 201.4725 111.360367 
L 199.7775 111.360367 
z
" clip-path="url(#pe5aebfc2ce)"/>
   </g>
   <g id="patch_12">
    <path d="M 203.1675 134.874562 
L 204.8625 134.874562 
L 204.8625 105.612453 
L 203.1675 105.612453 
z
" clip-path="url(#pe5aebfc2ce)"/>
   </g>
   <g id="patch_13">
    <path d="M 172.6575 105.699543 
L 174.3525 105.699543 
L 174.3525 76.655157 
L 172.6575 76.655157 
z
" clip-path="url(#pe5aebfc2ce)" style="fill: #ff0000"/>
   </g>
   <g id="patch_14">
    <path d="M 176.0475 134.874562 
L 177.7425 134.874562 
L 177.7425 110.141113 
L 176.0475 110.141113 
z
" clip-path="url(#pe5aebfc2ce)" style="fill: #ff0000"/>
   </g>
   <g id="patch_15">
    <path d="M 179.4375 134.874562 
L 181.1325 134.874562 
L 181.1325 134.874562 
L 179.4375 134.874562 
z
" clip-path="url(#pe5aebfc2ce)" style="fill: #ff0000"/>
   </g>
   <g id="patch_16">
    <path d="M 182.8275 134.874562 
L 184.5225 134.874562 
L 184.5225 134.874562 
L 182.8275 134.874562 
z
" clip-path="url(#pe5aebfc2ce)" style="fill: #ff0000"/>
   </g>
   <g id="patch_17">
    <path d="M 186.2175 134.874562 
L 187.9125 134.874562 
L 187.9125 134.874562 
L 186.2175 134.874562 
z
" clip-path="url(#pe5aebfc2ce)" style="fill: #ff0000"/>
   </g>
   <g id="patch_18">
    <path d="M 189.6075 134.874562 
L 191.3025 134.874562 
L 191.3025 134.874562 
L 189.6075 134.874562 
z
" clip-path="url(#pe5aebfc2ce)" style="fill: #ff0000"/>
   </g>
   <g id="patch_19">
    <path d="M 192.9975 134.874562 
L 194.6925 134.874562 
L 194.6925 134.874562 
L 192.9975 134.874562 
z
" clip-path="url(#pe5aebfc2ce)" style="fill: #ff0000"/>
   </g>
   <g id="patch_20">
    <path d="M 196.3875 134.874562 
L 198.0825 134.874562 
L 198.0825 134.874562 
L 196.3875 134.874562 
z
" clip-path="url(#pe5aebfc2ce)" style="fill: #ff0000"/>
   </g>
   <g id="patch_21">
    <path d="M 199.7775 111.360367 
L 201.4725 111.360367 
L 201.4725 88.673524 
L 199.7775 88.673524 
z
" clip-path="url(#pe5aebfc2ce)" style="fill: #ff0000"/>
   </g>
   <g id="patch_22">
    <path d="M 203.1675 105.612453 
L 204.8625 105.612453 
L 204.8625 76.611613 
L 203.1675 76.611613 
z
" clip-path="url(#pe5aebfc2ce)" style="fill: #ff0000"/>
   </g>
   <g id="patch_23">
    <path d="M 172.6575 134.874562 
L 174.3525 134.874562 
L 174.3525 134.874562 
L 172.6575 134.874562 
z
" clip-path="url(#pe5aebfc2ce)" style="fill: #0000ff"/>
   </g>
   <g id="patch_24">
    <path d="M 176.0475 134.874562 
L 177.7425 134.874562 
L 177.7425 134.874562 
L 176.0475 134.874562 
z
" clip-path="url(#pe5aebfc2ce)" style="fill: #0000ff"/>
   </g>
   <g id="patch_25">
    <path d="M 179.4375 134.874562 
L 181.1325 134.874562 
L 181.1325 134.874562 
L 179.4375 134.874562 
z
" clip-path="url(#pe5aebfc2ce)" style="fill: #0000ff"/>
   </g>
   <g id="patch_26">
    <path d="M 182.8275 134.874562 
L 184.5225 134.874562 
L 184.5225 134.874562 
L 182.8275 134.874562 
z
" clip-path="url(#pe5aebfc2ce)" style="fill: #0000ff"/>
   </g>
   <g id="patch_27">
    <path d="M 186.2175 134.874562 
L 187.9125 134.874562 
L 187.9125 134.874562 
L 186.2175 134.874562 
z
" clip-path="url(#pe5aebfc2ce)" style="fill: #0000ff"/>
   </g>
   <g id="patch_28">
    <path d="M 189.6075 134.874562 
L 191.3025 134.874562 
L 191.3025 107.702604 
L 189.6075 107.702604 
z
" clip-path="url(#pe5aebfc2ce)" style="fill: #0000ff"/>
   </g>
   <g id="patch_29">
    <path d="M 192.9975 134.874562 
L 194.6925 134.874562 
L 194.6925 107.223611 
L 192.9975 107.223611 
z
" clip-path="url(#pe5aebfc2ce)" style="fill: #0000ff"/>
   </g>
   <g id="patch_30">
    <path d="M 196.3875 112.405443 
L 198.0825 112.405443 
L 198.0825 85.799567 
L 196.3875 85.799567 
z
" clip-path="url(#pe5aebfc2ce)" style="fill: #0000ff"/>
   </g>
   <g id="patch_31">
    <path d="M 199.7775 134.874562 
L 201.4725 134.874562 
L 201.4725 134.874562 
L 199.7775 134.874562 
z
" clip-path="url(#pe5aebfc2ce)" style="fill: #0000ff"/>
   </g>
   <g id="patch_32">
    <path d="M 203.1675 134.874562 
L 204.8625 134.874562 
L 204.8625 134.874562 
L 203.1675 134.874562 
z
" clip-path="url(#pe5aebfc2ce)" style="fill: #0000ff"/>
   </g>
   <g id="patch_33">
    <path d="M 172.6575 134.874562 
L 174.3525 134.874562 
L 174.3525 134.874562 
L 172.6575 134.874562 
z
" clip-path="url(#pe5aebfc2ce)" style="fill: #008000"/>
   </g>
   <g id="patch_34">
    <path d="M 176.0475 134.874562 
L 177.7425 134.874562 
L 177.7425 134.874562 
L 176.0475 134.874562 
z
" clip-path="url(#pe5aebfc2ce)" style="fill: #008000"/>
   </g>
   <g id="patch_35">
    <path d="M 179.4375 134.874562 
L 181.1325 134.874562 
L 181.1325 134.874562 
L 179.4375 134.874562 
z
" clip-path="url(#pe5aebfc2ce)" style="fill: #008000"/>
   </g>
   <g id="patch_36">
    <path d="M 182.8275 134.874562 
L 184.5225 134.874562 
L 184.5225 134.874562 
L 182.8275 134.874562 
z
" clip-path="url(#pe5aebfc2ce)" style="fill: #008000"/>
   </g>
   <g id="patch_37">
    <path d="M 186.2175 134.874562 
L 187.9125 134.874562 
L 187.9125 134.874562 
L 186.2175 134.874562 
z
" clip-path="url(#pe5aebfc2ce)" style="fill: #008000"/>
   </g>
   <g id="patch_38">
    <path d="M 189.6075 134.874562 
L 191.3025 134.874562 
L 191.3025 134.874562 
L 189.6075 134.874562 
z
" clip-path="url(#pe5aebfc2ce)" style="fill: #008000"/>
   </g>
   <g id="patch_39">
    <path d="M 192.9975 107.223611 
L 194.6925 107.223611 
L 194.6925 68.686458 
L 192.9975 68.686458 
z
" clip-path="url(#pe5aebfc2ce)" style="fill: #008000"/>
   </g>
   <g id="patch_40">
    <path d="M 196.3875 85.799567 
L 198.0825 85.799567 
L 198.0825 45.694801 
L 196.3875 45.694801 
z
" clip-path="url(#pe5aebfc2ce)" style="fill: #008000"/>
   </g>
   <g id="patch_41">
    <path d="M 199.7775 88.673524 
L 201.4725 88.673524 
L 201.4725 45.694801 
L 199.7775 45.694801 
z
" clip-path="url(#pe5aebfc2ce)" style="fill: #008000"/>
   </g>
   <g id="patch_42">
    <path d="M 203.1675 134.874562 
L 204.8625 134.874562 
L 204.8625 134.874562 
L 203.1675 134.874562 
z
" clip-path="url(#pe5aebfc2ce)" style="fill: #008000"/>
   </g>
   <g id="patch_43">
    <path d="M 172.6575 76.655157 
L 174.3525 76.655157 
L 174.3525 45.694801 
L 172.6575 45.694801 
z
" clip-path="url(#pe5aebfc2ce)"/>
   </g>
   <g id="patch_44">
    <path d="M 176.0475 110.141113 
L 177.7425 110.141113 
L 177.7425 83.012699 
L 176.0475 83.012699 
z
" clip-path="url(#pe5aebfc2ce)"/>
   </g>
   <g id="patch_45">
    <path d="M 179.4375 134.874562 
L 181.1325 134.874562 
L 181.1325 108.66059 
L 179.4375 108.66059 
z
" clip-path="url(#pe5aebfc2ce)"/>
   </g>
   <g id="patch_46">
    <path d="M 182.8275 134.874562 
L 184.5225 134.874562 
L 184.5225 134.874562 
L 182.8275 134.874562 
z
" clip-path="url(#pe5aebfc2ce)"/>
   </g>
   <g id="patch_47">
    <path d="M 186.2175 134.874562 
L 187.9125 134.874562 
L 187.9125 134.874562 
L 186.2175 134.874562 
z
" clip-path="url(#pe5aebfc2ce)"/>
   </g>
   <g id="patch_48">
    <path d="M 189.6075 134.874562 
L 191.3025 134.874562 
L 191.3025 134.874562 
L 189.6075 134.874562 
z
" clip-path="url(#pe5aebfc2ce)"/>
   </g>
   <g id="patch_49">
    <path d="M 192.9975 134.874562 
L 194.6925 134.874562 
L 194.6925 134.874562 
L 192.9975 134.874562 
z
" clip-path="url(#pe5aebfc2ce)"/>
   </g>
   <g id="patch_50">
    <path d="M 196.3875 134.874562 
L 198.0825 134.874562 
L 198.0825 134.874562 
L 196.3875 134.874562 
z
" clip-path="url(#pe5aebfc2ce)"/>
   </g>
   <g id="patch_51">
    <path d="M 199.7775 134.874562 
L 201.4725 134.874562 
L 201.4725 134.874562 
L 199.7775 134.874562 
z
" clip-path="url(#pe5aebfc2ce)"/>
   </g>
   <g id="patch_52">
    <path d="M 203.1675 76.611613 
L 204.8625 76.611613 
L 204.8625 45.694801 
L 203.1675 45.694801 
z
" clip-path="url(#pe5aebfc2ce)"/>
   </g>
   <g id="patch_53">
    <path d="M 172.6575 134.874562 
L 174.3525 134.874562 
L 174.3525 134.874562 
L 172.6575 134.874562 
z
" clip-path="url(#pe5aebfc2ce)" style="fill: #ff0000"/>
   </g>
   <g id="patch_54">
    <path d="M 176.0475 83.012699 
L 177.7425 83.012699 
L 177.7425 45.694801 
L 176.0475 45.694801 
z
" clip-path="url(#pe5aebfc2ce)" style="fill: #ff0000"/>
   </g>
   <g id="patch_55">
    <path d="M 179.4375 108.66059 
L 181.1325 108.66059 
L 181.1325 73.519931 
L 179.4375 73.519931 
z
" clip-path="url(#pe5aebfc2ce)" style="fill: #ff0000"/>
   </g>
   <g id="patch_56">
    <path d="M 182.8275 134.874562 
L 184.5225 134.874562 
L 184.5225 102.782041 
L 182.8275 102.782041 
z
" clip-path="url(#pe5aebfc2ce)" style="fill: #ff0000"/>
   </g>
   <g id="patch_57">
    <path d="M 186.2175 134.874562 
L 187.9125 134.874562 
L 187.9125 134.874562 
L 186.2175 134.874562 
z
" clip-path="url(#pe5aebfc2ce)" style="fill: #ff0000"/>
   </g>
   <g id="patch_58">
    <path d="M 189.6075 134.874562 
L 191.3025 134.874562 
L 191.3025 134.874562 
L 189.6075 134.874562 
z
" clip-path="url(#pe5aebfc2ce)" style="fill: #ff0000"/>
   </g>
   <g id="patch_59">
    <path d="M 192.9975 134.874562 
L 194.6925 134.874562 
L 194.6925 134.874562 
L 192.9975 134.874562 
z
" clip-path="url(#pe5aebfc2ce)" style="fill: #ff0000"/>
   </g>
   <g id="patch_60">
    <path d="M 196.3875 134.874562 
L 198.0825 134.874562 
L 198.0825 134.874562 
L 196.3875 134.874562 
z
" clip-path="url(#pe5aebfc2ce)" style="fill: #ff0000"/>
   </g>
   <g id="patch_61">
    <path d="M 199.7775 134.874562 
L 201.4725 134.874562 
L 201.4725 134.874562 
L 199.7775 134.874562 
z
" clip-path="url(#pe5aebfc2ce)" style="fill: #ff0000"/>
   </g>
   <g id="patch_62">
    <path d="M 203.1675 134.874562 
L 204.8625 134.874562 
L 204.8625 134.874562 
L 203.1675 134.874562 
z
" clip-path="url(#pe5aebfc2ce)" style="fill: #ff0000"/>
   </g>
   <g id="patch_63">
    <path d="M 172.6575 134.874562 
L 174.3525 134.874562 
L 174.3525 134.874562 
L 172.6575 134.874562 
z
" clip-path="url(#pe5aebfc2ce)" style="fill: #0000ff"/>
   </g>
   <g id="patch_64">
    <path d="M 176.0475 134.874562 
L 177.7425 134.874562 
L 177.7425 134.874562 
L 176.0475 134.874562 
z
" clip-path="url(#pe5aebfc2ce)" style="fill: #0000ff"/>
   </g>
   <g id="patch_65">
    <path d="M 179.4375 73.519931 
L 181.1325 73.519931 
L 181.1325 45.694801 
L 179.4375 45.694801 
z
" clip-path="url(#pe5aebfc2ce)" style="fill: #0000ff"/>
   </g>
   <g id="patch_66">
    <path d="M 182.8275 102.782041 
L 184.5225 102.782041 
L 184.5225 80.66128 
L 182.8275 80.66128 
z
" clip-path="url(#pe5aebfc2ce)" style="fill: #0000ff"/>
   </g>
   <g id="patch_67">
    <path d="M 186.2175 134.874562 
L 187.9125 134.874562 
L 187.9125 109.313762 
L 186.2175 109.313762 
z
" clip-path="url(#pe5aebfc2ce)" style="fill: #0000ff"/>
   </g>
   <g id="patch_68">
    <path d="M 189.6075 134.874562 
L 191.3025 134.874562 
L 191.3025 134.874562 
L 189.6075 134.874562 
z
" clip-path="url(#pe5aebfc2ce)" style="fill: #0000ff"/>
   </g>
   <g id="patch_69">
    <path d="M 192.9975 134.874562 
L 194.6925 134.874562 
L 194.6925 134.874562 
L 192.9975 134.874562 
z
" clip-path="url(#pe5aebfc2ce)" style="fill: #0000ff"/>
   </g>
   <g id="patch_70">
    <path d="M 196.3875 134.874562 
L 198.0825 134.874562 
L 198.0825 134.874562 
L 196.3875 134.874562 
z
" clip-path="url(#pe5aebfc2ce)" style="fill: #0000ff"/>
   </g>
   <g id="patch_71">
    <path d="M 199.7775 134.874562 
L 201.4725 134.874562 
L 201.4725 134.874562 
L 199.7775 134.874562 
z
" clip-path="url(#pe5aebfc2ce)" style="fill: #0000ff"/>
   </g>
   <g id="patch_72">
    <path d="M 203.1675 134.874562 
L 204.8625 134.874562 
L 204.8625 134.874562 
L 203.1675 134.874562 
z
" clip-path="url(#pe5aebfc2ce)" style="fill: #0000ff"/>
   </g>
   <g id="patch_73">
    <path d="M 172.6575 134.874562 
L 174.3525 134.874562 
L 174.3525 134.874562 
L 172.6575 134.874562 
z
" clip-path="url(#pe5aebfc2ce)" style="fill: #008000"/>
   </g>
   <g id="patch_74">
    <path d="M 176.0475 134.874562 
L 177.7425 134.874562 
L 177.7425 134.874562 
L 176.0475 134.874562 
z
" clip-path="url(#pe5aebfc2ce)" style="fill: #008000"/>
   </g>
   <g id="patch_75">
    <path d="M 179.4375 134.874562 
L 181.1325 134.874562 
L 181.1325 134.874562 
L 179.4375 134.874562 
z
" clip-path="url(#pe5aebfc2ce)" style="fill: #008000"/>
   </g>
   <g id="patch_76">
    <path d="M 182.8275 134.874562 
L 184.5225 134.874562 
L 184.5225 134.874562 
L 182.8275 134.874562 
z
" clip-path="url(#pe5aebfc2ce)" style="fill: #008000"/>
   </g>
   <g id="patch_77">
    <path d="M 186.2175 109.313762 
L 187.9125 109.313762 
L 187.9125 82.533706 
L 186.2175 82.533706 
z
" clip-path="url(#pe5aebfc2ce)" style="fill: #008000"/>
   </g>
   <g id="patch_78">
    <path d="M 189.6075 107.702604 
L 191.3025 107.702604 
L 191.3025 84.493222 
L 189.6075 84.493222 
z
" clip-path="url(#pe5aebfc2ce)" style="fill: #008000"/>
   </g>
   <g id="patch_79">
    <path d="M 192.9975 68.686458 
L 194.6925 68.686458 
L 194.6925 45.694801 
L 192.9975 45.694801 
z
" clip-path="url(#pe5aebfc2ce)" style="fill: #008000"/>
   </g>
   <g id="patch_80">
    <path d="M 196.3875 134.874562 
L 198.0825 134.874562 
L 198.0825 134.874562 
L 196.3875 134.874562 
z
" clip-path="url(#pe5aebfc2ce)" style="fill: #008000"/>
   </g>
   <g id="patch_81">
    <path d="M 199.7775 134.874562 
L 201.4725 134.874562 
L 201.4725 134.874562 
L 199.7775 134.874562 
z
" clip-path="url(#pe5aebfc2ce)" style="fill: #008000"/>
   </g>
   <g id="patch_82">
    <path d="M 203.1675 134.874562 
L 204.8625 134.874562 
L 204.8625 134.874562 
L 203.1675 134.874562 
z
" clip-path="url(#pe5aebfc2ce)" style="fill: #008000"/>
   </g>
   <g id="patch_83">
    <path d="M 172.6575 134.874562 
L 174.3525 134.874562 
L 174.3525 134.874562 
L 172.6575 134.874562 
z
" clip-path="url(#pe5aebfc2ce)"/>
   </g>
   <g id="patch_84">
    <path d="M 176.0475 134.874562 
L 177.7425 134.874562 
L 177.7425 134.874562 
L 176.0475 134.874562 
z
" clip-path="url(#pe5aebfc2ce)"/>
   </g>
   <g id="patch_85">
    <path d="M 179.4375 134.874562 
L 181.1325 134.874562 
L 181.1325 134.874562 
L 179.4375 134.874562 
z
" clip-path="url(#pe5aebfc2ce)"/>
   </g>
   <g id="patch_86">
    <path d="M 182.8275 80.66128 
L 184.5225 80.66128 
L 184.5225 45.694801 
L 182.8275 45.694801 
z
" clip-path="url(#pe5aebfc2ce)"/>
   </g>
   <g id="patch_87">
    <path d="M 186.2175 82.533706 
L 187.9125 82.533706 
L 187.9125 45.694801 
L 186.2175 45.694801 
z
" clip-path="url(#pe5aebfc2ce)"/>
   </g>
   <g id="patch_88">
    <path d="M 189.6075 84.493222 
L 191.3025 84.493222 
L 191.3025 45.694801 
L 189.6075 45.694801 
z
" clip-path="url(#pe5aebfc2ce)"/>
   </g>
   <g id="patch_89">
    <path d="M 192.9975 134.874562 
L 194.6925 134.874562 
L 194.6925 134.874562 
L 192.9975 134.874562 
z
" clip-path="url(#pe5aebfc2ce)"/>
   </g>
   <g id="patch_90">
    <path d="M 196.3875 134.874562 
L 198.0825 134.874562 
L 198.0825 134.874562 
L 196.3875 134.874562 
z
" clip-path="url(#pe5aebfc2ce)"/>
   </g>
   <g id="patch_91">
    <path d="M 199.7775 134.874562 
L 201.4725 134.874562 
L 201.4725 134.874562 
L 199.7775 134.874562 
z
" clip-path="url(#pe5aebfc2ce)"/>
   </g>
   <g id="patch_92">
    <path d="M 203.1675 134.874562 
L 204.8625 134.874562 
L 204.8625 134.874562 
L 203.1675 134.874562 
z
" clip-path="url(#pe5aebfc2ce)"/>
   </g>
   <g id="patch_93">
    <path d="M 171.81 134.874562 
L 171.81 41.235812 
" style="fill: none; stroke: #000000; stroke-width: 0.5; stroke-linejoin: miter; stroke-linecap: square"/>
   </g>
   <g id="patch_94">
    <path d="M 205.71 134.874562 
L 205.71 41.235812 
" style="fill: none; stroke: #000000; stroke-width: 0.5; stroke-linejoin: miter; stroke-linecap: square"/>
   </g>
   <g id="patch_95">
    <path d="M 171.81 134.874562 
L 205.71 134.874562 
" style="fill: none; stroke: #000000; stroke-width: 0.5; stroke-linejoin: miter; stroke-linecap: square"/>
   </g>
   <g id="patch_96">
    <path d="M 171.81 41.235812 
L 205.71 41.235812 
" style="fill: none; stroke: #000000; stroke-width: 0.5; stroke-linejoin: miter; stroke-linecap: square"/>
   </g>
   <g id="text_18">
    <!-- Per Hospital Labels Distribution -->
    <g transform="translate(120.26025 35.235812) scale(0.096 -0.096)">
     <defs>
      <path id="Cmr10-4c" d="M 197 0 
L 197 225 
Q 856 225 856 428 
L 856 3944 
Q 856 4147 197 4147 
L 197 4372 
L 2272 4372 
L 2272 4147 
Q 1453 4147 1453 3944 
L 1453 428 
Q 1453 291 1531 258 
Q 1609 225 1778 225 
L 2272 225 
Q 2750 225 3009 400 
Q 3269 575 3376 876 
Q 3484 1178 3541 1678 
L 3725 1678 
L 3547 0 
L 197 0 
z
" transform="scale(0.015625)"/>
     </defs>
     <use xlink:href="#Cmr10-50"/>
     <use xlink:href="#Cmr10-65" x="68.017578"/>
     <use xlink:href="#Cmr10-72" x="112.402344"/>
     <use xlink:href="#Cmr10-20" x="151.513672"/>
     <use xlink:href="#Cmr10-48" x="184.814453"/>
     <use xlink:href="#Cmr10-6f" x="259.814453"/>
     <use xlink:href="#Cmr10-73" x="309.814453"/>
     <use xlink:href="#Cmr10-70" x="349.21875"/>
     <use xlink:href="#Cmr10-69" x="404.736328"/>
     <use xlink:href="#Cmr10-74" x="432.421875"/>
     <use xlink:href="#Cmr10-61" x="471.240234"/>
     <use xlink:href="#Cmr10-6c" x="521.240234"/>
     <use xlink:href="#Cmr10-20" x="548.925781"/>
     <use xlink:href="#Cmr10-4c" x="582.226562"/>
     <use xlink:href="#Cmr10-61" x="644.726562"/>
     <use xlink:href="#Cmr10-62" x="694.726562"/>
     <use xlink:href="#Cmr10-65" x="750.244141"/>
     <use xlink:href="#Cmr10-6c" x="794.628906"/>
     <use xlink:href="#Cmr10-73" x="822.314453"/>
     <use xlink:href="#Cmr10-20" x="861.71875"/>
     <use xlink:href="#Cmr10-44" x="895.019531"/>
     <use xlink:href="#Cmr10-69" x="971.337891"/>
     <use xlink:href="#Cmr10-73" x="999.023438"/>
     <use xlink:href="#Cmr10-74" x="1038.427734"/>
     <use xlink:href="#Cmr10-72" x="1077.246094"/>
     <use xlink:href="#Cmr10-69" x="1116.357422"/>
     <use xlink:href="#Cmr10-62" x="1144.042969"/>
     <use xlink:href="#Cmr10-75" x="1199.560547"/>
     <use xlink:href="#Cmr10-74" x="1255.078125"/>
     <use xlink:href="#Cmr10-69" x="1293.896484"/>
     <use xlink:href="#Cmr10-6f" x="1321.582031"/>
     <use xlink:href="#Cmr10-6e" x="1371.582031"/>
    </g>
   </g>
   <g id="legend_1">
    <g id="text_19">
     <!-- Labels -->
     <g transform="translate(177.58 12.35125) scale(0.08 -0.08)">
      <use xlink:href="#Cmr10-4c"/>
      <use xlink:href="#Cmr10-61" x="62.5"/>
      <use xlink:href="#Cmr10-62" x="112.5"/>
      <use xlink:href="#Cmr10-65" x="168.017578"/>
      <use xlink:href="#Cmr10-6c" x="212.402344"/>
      <use xlink:href="#Cmr10-73" x="240.087891"/>
     </g>
    </g>
    <g id="patch_97">
     <path d="M 6.8 23.62875 
L 22.8 23.62875 
L 22.8 18.02875 
L 6.8 18.02875 
z
"/>
    </g>
    <g id="text_20">
     <!-- Adipose -->
     <g transform="translate(29.2 23.62875) scale(0.08 -0.08)">
      <defs>
       <path id="Cmr10-41" d="M 206 0 
L 206 225 
Q 778 225 909 603 
L 2253 4513 
Q 2272 4581 2356 4581 
L 2438 4581 
Q 2522 4581 2541 4513 
L 3944 428 
Q 4003 294 4170 259 
Q 4338 225 4588 225 
L 4588 0 
L 2803 0 
L 2803 225 
Q 3334 225 3334 397 
L 3334 428 
L 2988 1428 
L 1434 1428 
L 1147 603 
Q 1141 581 1141 538 
Q 1141 378 1292 301 
Q 1444 225 1619 225 
L 1619 0 
L 206 0 
z
M 1509 1650 
L 2913 1650 
L 2209 3694 
L 1509 1650 
z
" transform="scale(0.015625)"/>
       <path id="Cmr10-64" d="M 1563 -72 
Q 1184 -72 871 133 
Q 559 338 386 672 
Q 213 1006 213 1381 
Q 213 1769 402 2101 
Q 591 2434 916 2631 
Q 1241 2828 1631 2828 
Q 1866 2828 2075 2729 
Q 2284 2631 2438 2456 
L 2438 3788 
Q 2438 3959 2386 4036 
Q 2334 4113 2239 4130 
Q 2144 4147 1941 4147 
L 1941 4372 
L 2888 4441 
L 2888 581 
Q 2888 413 2939 336 
Q 2991 259 3086 242 
Q 3181 225 3384 225 
L 3384 0 
L 2419 -72 
L 2419 331 
Q 2253 141 2025 34 
Q 1797 -72 1563 -72 
z
M 909 556 
Q 1019 347 1201 222 
Q 1384 97 1600 97 
Q 1866 97 2087 250 
Q 2309 403 2419 647 
L 2419 2181 
Q 2344 2322 2230 2433 
Q 2116 2544 1973 2603 
Q 1831 2663 1672 2663 
Q 1338 2663 1134 2473 
Q 931 2284 850 1990 
Q 769 1697 769 1375 
Q 769 1119 795 928 
Q 822 738 909 556 
z
" transform="scale(0.015625)"/>
      </defs>
      <use xlink:href="#Cmr10-41"/>
      <use xlink:href="#Cmr10-64" x="75"/>
      <use xlink:href="#Cmr10-69" x="130.517578"/>
      <use xlink:href="#Cmr10-70" x="158.203125"/>
      <use xlink:href="#Cmr10-6f" x="213.720703"/>
      <use xlink:href="#Cmr10-73" x="263.720703"/>
      <use xlink:href="#Cmr10-65" x="303.125"/>
     </g>
    </g>
    <g id="patch_98">
     <path d="M 6.8 34.78 
L 22.8 34.78 
L 22.8 29.18 
L 6.8 29.18 
z
" style="fill: #ff0000"/>
    </g>
    <g id="text_21">
     <!-- Background -->
     <g transform="translate(29.2 34.78) scale(0.08 -0.08)">
      <defs>
       <path id="Cmr10-42" d="M 219 0 
L 219 225 
Q 878 225 878 428 
L 878 3944 
Q 878 4147 219 4147 
L 219 4372 
L 2572 4372 
Q 2897 4372 3228 4245 
Q 3559 4119 3776 3870 
Q 3994 3622 3994 3284 
Q 3994 2894 3673 2630 
Q 3353 2366 2925 2284 
Q 3203 2284 3497 2131 
Q 3791 1978 3978 1722 
Q 4166 1466 4166 1178 
Q 4166 828 3958 559 
Q 3750 291 3419 145 
Q 3088 0 2753 0 
L 219 0 
z
M 1434 428 
Q 1434 291 1512 258 
Q 1591 225 1759 225 
L 2572 225 
Q 2822 225 3036 356 
Q 3250 488 3375 708 
Q 3500 928 3500 1178 
Q 3500 1422 3397 1655 
Q 3294 1888 3101 2038 
Q 2909 2188 2663 2188 
L 1434 2188 
L 1434 428 
z
M 1434 2356 
L 2394 2356 
Q 2588 2356 2758 2426 
Q 2928 2497 3064 2630 
Q 3200 2763 3273 2930 
Q 3347 3097 3347 3284 
Q 3347 3450 3292 3603 
Q 3238 3756 3131 3881 
Q 3025 4006 2881 4076 
Q 2738 4147 2572 4147 
L 1759 4147 
Q 1644 4147 1580 4137 
Q 1516 4128 1475 4083 
Q 1434 4038 1434 3944 
L 1434 2356 
z
" transform="scale(0.015625)"/>
       <path id="Cmr10-63" d="M 1594 -72 
Q 1206 -72 890 129 
Q 575 331 394 667 
Q 213 1003 213 1381 
Q 213 1759 392 2106 
Q 572 2453 889 2661 
Q 1206 2869 1594 2869 
Q 1969 2869 2276 2722 
Q 2584 2575 2584 2241 
Q 2584 2116 2495 2023 
Q 2406 1931 2278 1931 
Q 2150 1931 2061 2023 
Q 1972 2116 1972 2241 
Q 1972 2353 2044 2436 
Q 2116 2519 2222 2541 
Q 2000 2681 1600 2681 
Q 1294 2681 1106 2478 
Q 919 2275 844 1975 
Q 769 1675 769 1381 
Q 769 1072 861 783 
Q 953 494 1158 305 
Q 1363 116 1672 116 
Q 1975 116 2187 302 
Q 2400 488 2478 788 
Q 2478 825 2528 825 
L 2606 825 
Q 2625 825 2640 808 
Q 2656 791 2656 769 
L 2656 750 
Q 2559 372 2271 150 
Q 1984 -72 1594 -72 
z
" transform="scale(0.015625)"/>
       <path id="Cmr10-6b" d="M 166 0 
L 166 225 
Q 384 225 525 259 
Q 666 294 666 428 
L 666 3788 
Q 666 3959 614 4036 
Q 563 4113 466 4130 
Q 369 4147 166 4147 
L 166 4372 
L 1113 4441 
L 1113 1403 
L 1972 2156 
Q 2100 2278 2100 2381 
Q 2100 2456 2047 2495 
Q 1994 2534 1919 2534 
L 1919 2759 
L 3122 2759 
L 3122 2534 
Q 2688 2534 2253 2156 
L 1797 1759 
L 2613 603 
Q 2781 363 2895 294 
Q 3009 225 3272 225 
L 3272 0 
L 1997 0 
L 1997 225 
Q 2216 225 2216 359 
Q 2216 456 2100 603 
L 1484 1478 
L 1094 1141 
L 1094 428 
Q 1094 294 1236 259 
Q 1378 225 1594 225 
L 1594 0 
L 166 0 
z
" transform="scale(0.015625)"/>
       <path id="Cmr10-67" d="M 178 -500 
Q 178 -272 343 -101 
Q 509 69 738 141 
Q 609 238 542 384 
Q 475 531 475 697 
Q 475 997 666 1228 
Q 372 1516 372 1888 
Q 372 2088 458 2263 
Q 544 2438 697 2566 
Q 850 2694 1037 2761 
Q 1225 2828 1422 2828 
Q 1803 2828 2106 2606 
Q 2238 2747 2417 2823 
Q 2597 2900 2791 2900 
Q 2928 2900 3015 2801 
Q 3103 2703 3103 2566 
Q 3103 2488 3043 2428 
Q 2984 2369 2906 2369 
Q 2825 2369 2765 2428 
Q 2706 2488 2706 2566 
Q 2706 2684 2784 2731 
Q 2453 2731 2216 2503 
Q 2331 2388 2401 2220 
Q 2472 2053 2472 1888 
Q 2472 1616 2322 1398 
Q 2172 1181 1926 1061 
Q 1681 941 1422 941 
Q 1072 941 781 1131 
Q 691 1006 691 850 
Q 691 681 802 554 
Q 913 428 1081 428 
L 1606 428 
Q 1988 428 2294 359 
Q 2600 291 2808 84 
Q 3016 -122 3016 -500 
Q 3016 -781 2778 -967 
Q 2541 -1153 2211 -1236 
Q 1881 -1319 1600 -1319 
Q 1316 -1319 984 -1236 
Q 653 -1153 415 -967 
Q 178 -781 178 -500 
z
M 538 -500 
Q 538 -716 713 -861 
Q 888 -1006 1134 -1076 
Q 1381 -1147 1600 -1147 
Q 1816 -1147 2062 -1076 
Q 2309 -1006 2482 -861 
Q 2656 -716 2656 -500 
Q 2656 -166 2350 -67 
Q 2044 31 1606 31 
L 1081 31 
Q 934 31 811 -39 
Q 688 -109 613 -236 
Q 538 -363 538 -500 
z
M 1422 1113 
Q 1966 1113 1966 1888 
Q 1966 2222 1850 2439 
Q 1734 2656 1422 2656 
Q 1109 2656 993 2439 
Q 878 2222 878 1888 
Q 878 1675 922 1503 
Q 966 1331 1084 1222 
Q 1203 1113 1422 1113 
z
" transform="scale(0.015625)"/>
      </defs>
      <use xlink:href="#Cmr10-42"/>
      <use xlink:href="#Cmr10-61" x="70.800781"/>
      <use xlink:href="#Cmr10-63" x="120.800781"/>
      <use xlink:href="#Cmr10-6b" x="165.185547"/>
      <use xlink:href="#Cmr10-67" x="217.871094"/>
      <use xlink:href="#Cmr10-72" x="267.871094"/>
      <use xlink:href="#Cmr10-6f" x="306.982422"/>
      <use xlink:href="#Cmr10-75" x="356.982422"/>
      <use xlink:href="#Cmr10-6e" x="412.5"/>
      <use xlink:href="#Cmr10-64" x="468.017578"/>
     </g>
    </g>
    <g id="patch_99">
     <path d="M 6.8 46.02875 
L 22.8 46.02875 
L 22.8 40.42875 
L 6.8 40.42875 
z
" style="fill: #0000ff"/>
    </g>
    <g id="text_22">
     <!-- Cancer-associated Stroma -->
     <g transform="translate(29.2 46.02875) scale(0.08 -0.08)">
      <defs>
       <path id="Cmr10-43" d="M 1459 684 
Q 1678 406 2006 245 
Q 2334 84 2688 84 
Q 2984 84 3237 201 
Q 3491 319 3680 528 
Q 3869 738 3970 1003 
Q 4072 1269 4072 1563 
Q 4072 1613 4128 1613 
L 4206 1613 
Q 4256 1613 4256 1550 
Q 4256 1216 4128 905 
Q 4000 594 3765 358 
Q 3531 122 3226 -9 
Q 2922 -141 2591 -141 
Q 2131 -141 1720 45 
Q 1309 231 1004 554 
Q 700 878 529 1303 
Q 359 1728 359 2188 
Q 359 2647 529 3072 
Q 700 3497 1004 3822 
Q 1309 4147 1720 4330 
Q 2131 4513 2591 4513 
Q 2919 4513 3219 4370 
Q 3519 4228 3744 3969 
L 4116 4494 
Q 4153 4513 4159 4513 
L 4206 4513 
Q 4225 4513 4240 4497 
Q 4256 4481 4256 4459 
L 4256 2731 
Q 4256 2675 4206 2675 
L 4091 2675 
Q 4031 2675 4031 2731 
Q 4031 2916 3957 3144 
Q 3884 3372 3770 3576 
Q 3656 3781 3506 3938 
Q 3147 4288 2681 4288 
Q 2328 4288 2004 4128 
Q 1681 3969 1459 3688 
Q 1225 3388 1134 3005 
Q 1044 2622 1044 2188 
Q 1044 1753 1134 1368 
Q 1225 984 1459 684 
z
" transform="scale(0.015625)"/>
       <path id="Cmr10-2d" d="M 72 1184 
L 72 1581 
L 1766 1581 
L 1766 1184 
L 72 1184 
z
" transform="scale(0.015625)"/>
       <path id="Cmr10-53" d="M 359 -91 
L 359 1403 
Q 359 1453 416 1453 
L 494 1453 
Q 513 1453 528 1437 
Q 544 1422 544 1403 
Q 544 775 933 429 
Q 1322 84 1953 84 
Q 2175 84 2362 212 
Q 2550 341 2654 548 
Q 2759 756 2759 978 
Q 2759 1172 2681 1355 
Q 2603 1538 2456 1672 
Q 2309 1806 2125 1850 
L 1294 2053 
Q 881 2163 620 2502 
Q 359 2841 359 3263 
Q 359 3594 528 3884 
Q 697 4175 983 4344 
Q 1269 4513 1600 4513 
Q 2241 4513 2619 4078 
L 2881 4494 
Q 2900 4513 2925 4513 
L 2969 4513 
Q 2988 4513 3005 4498 
Q 3022 4484 3022 4459 
L 3022 2975 
Q 3022 2919 2969 2919 
L 2894 2919 
Q 2834 2919 2834 2975 
Q 2834 3138 2779 3331 
Q 2725 3525 2628 3703 
Q 2531 3881 2419 3994 
Q 2109 4306 1600 4306 
Q 1381 4306 1197 4195 
Q 1013 4084 903 3893 
Q 794 3703 794 3494 
Q 794 3219 964 2995 
Q 1134 2772 1409 2700 
L 2241 2497 
Q 2447 2447 2630 2317 
Q 2813 2188 2934 2016 
Q 3056 1844 3125 1633 
Q 3194 1422 3194 1197 
Q 3194 850 3034 542 
Q 2875 234 2586 46 
Q 2297 -141 1953 -141 
Q 1741 -141 1519 -94 
Q 1297 -47 1109 50 
Q 922 147 769 300 
L 500 -122 
Q 481 -141 453 -141 
L 416 -141 
Q 359 -141 359 -91 
z
" transform="scale(0.015625)"/>
      </defs>
      <use xlink:href="#Cmr10-43"/>
      <use xlink:href="#Cmr10-61" x="72.216797"/>
      <use xlink:href="#Cmr10-6e" x="122.216797"/>
      <use xlink:href="#Cmr10-63" x="177.734375"/>
      <use xlink:href="#Cmr10-65" x="222.119141"/>
      <use xlink:href="#Cmr10-72" x="266.503906"/>
      <use xlink:href="#Cmr10-2d" x="305.615234"/>
      <use xlink:href="#Cmr10-61" x="338.916016"/>
      <use xlink:href="#Cmr10-73" x="388.916016"/>
      <use xlink:href="#Cmr10-73" x="428.320312"/>
      <use xlink:href="#Cmr10-6f" x="467.724609"/>
      <use xlink:href="#Cmr10-63" x="517.724609"/>
      <use xlink:href="#Cmr10-69" x="562.109375"/>
      <use xlink:href="#Cmr10-61" x="589.794922"/>
      <use xlink:href="#Cmr10-74" x="639.794922"/>
      <use xlink:href="#Cmr10-65" x="678.613281"/>
      <use xlink:href="#Cmr10-64" x="722.998047"/>
      <use xlink:href="#Cmr10-20" x="778.515625"/>
      <use xlink:href="#Cmr10-53" x="811.816406"/>
      <use xlink:href="#Cmr10-74" x="867.333984"/>
      <use xlink:href="#Cmr10-72" x="906.152344"/>
      <use xlink:href="#Cmr10-6f" x="945.263672"/>
      <use xlink:href="#Cmr10-6d" x="995.263672"/>
      <use xlink:href="#Cmr10-61" x="1078.564453"/>
     </g>
    </g>
    <g id="patch_100">
     <path d="M 135.485 23.62875 
L 151.485 23.62875 
L 151.485 18.02875 
L 135.485 18.02875 
z
" style="fill: #008000"/>
    </g>
    <g id="text_23">
     <!-- Colorectal Adenocarcinoma -->
     <g transform="translate(157.885 23.62875) scale(0.08 -0.08)">
      <use xlink:href="#Cmr10-43"/>
      <use xlink:href="#Cmr10-6f" x="72.216797"/>
      <use xlink:href="#Cmr10-6c" x="122.216797"/>
      <use xlink:href="#Cmr10-6f" x="149.902344"/>
      <use xlink:href="#Cmr10-72" x="199.902344"/>
      <use xlink:href="#Cmr10-65" x="239.013672"/>
      <use xlink:href="#Cmr10-63" x="283.398438"/>
      <use xlink:href="#Cmr10-74" x="327.783203"/>
      <use xlink:href="#Cmr10-61" x="366.601562"/>
      <use xlink:href="#Cmr10-6c" x="416.601562"/>
      <use xlink:href="#Cmr10-20" x="444.287109"/>
      <use xlink:href="#Cmr10-41" x="477.587891"/>
      <use xlink:href="#Cmr10-64" x="552.587891"/>
      <use xlink:href="#Cmr10-65" x="608.105469"/>
      <use xlink:href="#Cmr10-6e" x="652.490234"/>
      <use xlink:href="#Cmr10-6f" x="708.007812"/>
      <use xlink:href="#Cmr10-63" x="758.007812"/>
      <use xlink:href="#Cmr10-61" x="802.392578"/>
      <use xlink:href="#Cmr10-72" x="852.392578"/>
      <use xlink:href="#Cmr10-63" x="891.503906"/>
      <use xlink:href="#Cmr10-69" x="935.888672"/>
      <use xlink:href="#Cmr10-6e" x="963.574219"/>
      <use xlink:href="#Cmr10-6f" x="1019.091797"/>
      <use xlink:href="#Cmr10-6d" x="1069.091797"/>
      <use xlink:href="#Cmr10-61" x="1152.392578"/>
     </g>
    </g>
    <g id="patch_101">
     <path d="M 135.485 34.78 
L 151.485 34.78 
L 151.485 29.18 
L 135.485 29.18 
z
"/>
    </g>
    <g id="text_24">
     <!-- Debris -->
     <g transform="translate(157.885 34.78) scale(0.08 -0.08)">
      <use xlink:href="#Cmr10-44"/>
      <use xlink:href="#Cmr10-65" x="76.318359"/>
      <use xlink:href="#Cmr10-62" x="120.703125"/>
      <use xlink:href="#Cmr10-72" x="176.220703"/>
      <use xlink:href="#Cmr10-69" x="215.332031"/>
      <use xlink:href="#Cmr10-73" x="243.017578"/>
     </g>
    </g>
    <g id="patch_102">
     <path d="M 135.485 45.93125 
L 151.485 45.93125 
L 151.485 40.33125 
L 135.485 40.33125 
z
" style="fill: #ff0000"/>
    </g>
    <g id="text_25">
     <!-- Lymphocytes -->
     <g transform="translate(157.885 45.93125) scale(0.08 -0.08)">
      <defs>
       <path id="Cmr10-79" d="M 441 -1050 
Q 563 -1147 709 -1147 
Q 1113 -1147 1369 -538 
L 1588 0 
L 628 2350 
Q 569 2469 447 2501 
Q 325 2534 122 2534 
L 122 2759 
L 1466 2759 
L 1466 2534 
Q 1113 2534 1113 2381 
Q 1113 2356 1119 2344 
L 1831 594 
L 2472 2169 
Q 2491 2219 2491 2278 
Q 2491 2356 2448 2414 
Q 2406 2472 2339 2503 
Q 2272 2534 2188 2534 
L 2188 2759 
L 3250 2759 
L 3250 2534 
Q 3053 2534 2904 2443 
Q 2756 2353 2675 2175 
L 1569 -538 
Q 1481 -744 1364 -917 
Q 1247 -1091 1078 -1202 
Q 909 -1313 709 -1313 
Q 475 -1313 298 -1158 
Q 122 -1003 122 -775 
Q 122 -656 203 -575 
Q 284 -494 403 -494 
Q 484 -494 548 -530 
Q 613 -566 648 -628 
Q 684 -691 684 -775 
Q 684 -878 615 -959 
Q 547 -1041 441 -1050 
z
" transform="scale(0.015625)"/>
       <path id="Cmr10-68" d="M 191 0 
L 191 225 
Q 409 225 550 259 
Q 691 294 691 428 
L 691 3788 
Q 691 3959 639 4036 
Q 588 4113 491 4130 
Q 394 4147 191 4147 
L 191 4372 
L 1141 4441 
L 1141 2241 
Q 1275 2506 1515 2667 
Q 1756 2828 2047 2828 
Q 2491 2828 2714 2615 
Q 2938 2403 2938 1966 
L 2938 428 
Q 2938 294 3078 259 
Q 3219 225 3438 225 
L 3438 0 
L 1972 0 
L 1972 225 
Q 2191 225 2331 259 
Q 2472 294 2472 428 
L 2472 1947 
Q 2472 2259 2381 2461 
Q 2291 2663 2009 2663 
Q 1638 2663 1398 2366 
Q 1159 2069 1159 1691 
L 1159 428 
Q 1159 294 1300 259 
Q 1441 225 1656 225 
L 1656 0 
L 191 0 
z
" transform="scale(0.015625)"/>
      </defs>
      <use xlink:href="#Cmr10-4c"/>
      <use xlink:href="#Cmr10-79" x="62.5"/>
      <use xlink:href="#Cmr10-6d" x="115.185547"/>
      <use xlink:href="#Cmr10-70" x="198.486328"/>
      <use xlink:href="#Cmr10-68" x="254.003906"/>
      <use xlink:href="#Cmr10-6f" x="309.521484"/>
      <use xlink:href="#Cmr10-63" x="359.521484"/>
      <use xlink:href="#Cmr10-79" x="403.90625"/>
      <use xlink:href="#Cmr10-74" x="456.591797"/>
      <use xlink:href="#Cmr10-65" x="495.410156"/>
      <use xlink:href="#Cmr10-73" x="539.794922"/>
     </g>
    </g>
    <g id="patch_103">
     <path d="M 270.0775 23.62875 
L 286.0775 23.62875 
L 286.0775 18.02875 
L 270.0775 18.02875 
z
" style="fill: #0000ff"/>
    </g>
    <g id="text_26">
     <!-- Mucus -->
     <g transform="translate(292.4775 23.62875) scale(0.08 -0.08)">
      <defs>
       <path id="Cmr10-4d" d="M 225 0 
L 225 225 
Q 884 225 884 603 
L 884 3944 
Q 884 4147 225 4147 
L 225 4372 
L 1434 4372 
Q 1513 4372 1538 4300 
L 2931 678 
L 4325 4300 
Q 4350 4372 4428 4372 
L 5638 4372 
L 5638 4147 
Q 4978 4147 4978 3944 
L 4978 428 
Q 4978 225 5638 225 
L 5638 0 
L 3775 0 
L 3775 225 
Q 4434 225 4434 428 
L 4434 4153 
L 2859 72 
Q 2831 0 2753 0 
Q 2672 0 2644 72 
L 1088 4103 
L 1088 603 
Q 1088 225 1747 225 
L 1747 0 
L 225 0 
z
" transform="scale(0.015625)"/>
      </defs>
      <use xlink:href="#Cmr10-4d"/>
      <use xlink:href="#Cmr10-75" x="91.601562"/>
      <use xlink:href="#Cmr10-63" x="147.119141"/>
      <use xlink:href="#Cmr10-75" x="191.503906"/>
      <use xlink:href="#Cmr10-73" x="247.021484"/>
     </g>
    </g>
    <g id="patch_104">
     <path d="M 270.0775 34.78 
L 286.0775 34.78 
L 286.0775 29.18 
L 270.0775 29.18 
z
" style="fill: #008000"/>
    </g>
    <g id="text_27">
     <!-- Normal Colon Mucosa -->
     <g transform="translate(292.4775 34.78) scale(0.08 -0.08)">
      <use xlink:href="#Cmr10-4e"/>
      <use xlink:href="#Cmr10-6f" x="75"/>
      <use xlink:href="#Cmr10-72" x="125"/>
      <use xlink:href="#Cmr10-6d" x="164.111328"/>
      <use xlink:href="#Cmr10-61" x="247.412109"/>
      <use xlink:href="#Cmr10-6c" x="297.412109"/>
      <use xlink:href="#Cmr10-20" x="325.097656"/>
      <use xlink:href="#Cmr10-43" x="358.398438"/>
      <use xlink:href="#Cmr10-6f" x="430.615234"/>
      <use xlink:href="#Cmr10-6c" x="480.615234"/>
      <use xlink:href="#Cmr10-6f" x="508.300781"/>
      <use xlink:href="#Cmr10-6e" x="558.300781"/>
      <use xlink:href="#Cmr10-20" x="613.818359"/>
      <use xlink:href="#Cmr10-4d" x="647.119141"/>
      <use xlink:href="#Cmr10-75" x="738.720703"/>
      <use xlink:href="#Cmr10-63" x="794.238281"/>
      <use xlink:href="#Cmr10-6f" x="838.623047"/>
      <use xlink:href="#Cmr10-73" x="888.623047"/>
      <use xlink:href="#Cmr10-61" x="928.027344"/>
     </g>
    </g>
    <g id="patch_105">
     <path d="M 270.0775 45.93125 
L 286.0775 45.93125 
L 286.0775 40.33125 
L 270.0775 40.33125 
z
"/>
    </g>
    <g id="text_28">
     <!-- Smooth Muscle -->
     <g transform="translate(292.4775 45.93125) scale(0.08 -0.08)">
      <use xlink:href="#Cmr10-53"/>
      <use xlink:href="#Cmr10-6d" x="55.517578"/>
      <use xlink:href="#Cmr10-6f" x="138.818359"/>
      <use xlink:href="#Cmr10-6f" x="188.818359"/>
      <use xlink:href="#Cmr10-74" x="238.818359"/>
      <use xlink:href="#Cmr10-68" x="277.636719"/>
      <use xlink:href="#Cmr10-20" x="333.154297"/>
      <use xlink:href="#Cmr10-4d" x="366.455078"/>
      <use xlink:href="#Cmr10-75" x="458.056641"/>
      <use xlink:href="#Cmr10-73" x="513.574219"/>
      <use xlink:href="#Cmr10-63" x="552.978516"/>
      <use xlink:href="#Cmr10-6c" x="597.363281"/>
      <use xlink:href="#Cmr10-65" x="625.048828"/>
     </g>
    </g>
   </g>
  </g>
 </g>
 <defs>
  <clipPath id="pe5aebfc2ce">
   <rect x="171.81" y="41.235812" width="33.9" height="93.63875"/>
  </clipPath>
 </defs>
</svg>
